<svg xmlns="http://www.w3.org/2000/svg" xmlns:xlink="http://www.w3.org/1999/xlink" viewBox="0 0 1286.04 813.89"><defs><style>.cls-1{fill:url(#linear-gradient);}.cls-2{fill:#e7f6ff;}.cls-3{fill:none;}.cls-4{fill:#426572;}.cls-5{fill:#fff;}.cls-11,.cls-6{opacity:0.5;}.cls-7{fill:#fde1ce;}.cls-8{fill:#efc3a6;}.cls-9{fill:#87d6fe;}.cls-10{fill:#307fc3;}.cls-11{fill:#4da7df;}.cls-12{fill:#dee6f1;}.cls-13{fill:#a7bcd5;}.cls-14{fill:#e8837e;}.cls-15{fill:#d87673;}.cls-16{fill:#65aee2;}.cls-17,.cls-18{fill:#606060;}.cls-17{opacity:0.1;}.cls-18{opacity:0.2;}.cls-19{fill:#d66765;}.cls-20{fill:#37b5ff;}</style><linearGradient id="linear-gradient" x1="1.32" y1="441.05" x2="1254.6" y2="441.05" gradientUnits="userSpaceOnUse"><stop offset="0" stop-color="#c5e9fa"/><stop offset="1" stop-color="#c4f4ea"/></linearGradient></defs><title>Asset 16</title><g id="Layer_2" data-name="Layer 2"><g id="Layer_1-2" data-name="Layer 1"><path class="cls-1" d="M1218.18,519.32C1172.73,637,1087.28,740.1,968.59,785.41a431.14,431.14,0,0,1-47.21,14.95C836.7,822,744.06,814.44,666,775.1c-33.13-16.71-63.34-38.79-96.59-55.26S498.19,692.59,462,700.72c-31.16,7-57.45,27.06-83.92,44.93-62.4,42.13-137.43,75.47-211.32,61-34-6.65-67.48-25.07-83.27-55.86-34.9-68.07,30.92-149,17.59-224.28-8.53-48.18-47.49-84.26-71.71-126.78C-12.08,327-7.18,230.39,41.42,162.24S179.74,57.94,262,73.4c100.3,18.85,176.15,103.75,273.69,133.78,61,18.77,127.23,13.17,185.49-11.55,94.13-39.95,223.45-101.22,329.38-91.24,56.33,5.31,111.58,30.31,148.76,73,47,53.89,61.09,130.4,53.25,201.46A563.35,563.35,0,0,1,1218.18,519.32Z"/><path class="cls-2" d="M1248.42,612.4a26.24,26.24,0,0,1-6.2-.75,25.94,25.94,0,1,1,6.2.75Zm-.07-40.18a14.09,14.09,0,0,0-3.29,27.78h0a14.08,14.08,0,1,0,6.64-27.37A14.16,14.16,0,0,0,1248.35,572.21Z"/><circle class="cls-2" cx="1213.76" cy="637.26" r="11.33" transform="translate(308.4 1666.65) rotate(-76.37)"/><path class="cls-2" d="M55.19,609.93a26.09,26.09,0,1,1,1.14,0Zm0-40.17H54.6a14.09,14.09,0,1,0,.61,0Z"/><circle class="cls-2" cx="36.08" cy="642.4" r="11.33" transform="translate(-27.63 2.15) rotate(-2.47)"/><path class="cls-2" d="M709.08,188.13A26.07,26.07,0,1,1,724,183.41,26.07,26.07,0,0,1,709.08,188.13ZM709,148a14.13,14.13,0,1,0,2.47.22A14.17,14.17,0,0,0,709,148Z"/><circle class="cls-2" cx="649.4" cy="177.45" r="11.33" transform="translate(15.81 404.98) rotate(-35.04)"/><rect class="cls-3" x="713.36" y="175" width="44.48" height="44.48"/><rect class="cls-3" x="713.36" y="175" width="44.48" height="44.48"/><path class="cls-4" d="M839.66,794"/><path class="cls-5" d="M1286,322.52a41.46,41.46,0,0,0-41.46-41.46c-.92,0-1.83,0-2.73.09.06-.9.09-1.81.09-2.73A41.46,41.46,0,1,0,1160.39,289a41.46,41.46,0,1,0-32.61,74.19,41.46,41.46,0,0,0,68.84,13.94,41.46,41.46,0,0,0,62.66-15.8A41.47,41.47,0,0,0,1286,322.52Z"/><path class="cls-5" d="M191.45,222.82A41.46,41.46,0,0,0,150,181.36c-.92,0-1.83,0-2.73.09.06-.9.09-1.81.09-2.73A41.46,41.46,0,1,0,65.8,189.26a41.46,41.46,0,1,0-32.61,74.19A41.46,41.46,0,0,0,102,277.39a41.46,41.46,0,0,0,62.66-15.8A41.47,41.47,0,0,0,191.45,222.82Z"/><path class="cls-4" d="M954.18,812.79H357.68v-13h596.5a6.5,6.5,0,0,1,0,13Z"/><path class="cls-4" d="M331,812.79H294.53a6.5,6.5,0,1,1,0-13H331a6.5,6.5,0,1,1,0,13Z"/><path class="cls-4" d="M270.86,812.79H259.24a6.5,6.5,0,0,1,0-13h11.62a6.5,6.5,0,0,1,0,13Z"/><path class="cls-4" d="M1163.34,812.79H980v-13h183.34a6.5,6.5,0,0,1,0,13Z"/><path class="cls-4" d="M226,812.79H42.65v-13H226a6.5,6.5,0,0,1,0,13Z"/><g class="cls-6"><rect class="cls-5" x="179.04" y="698.14" width="619.34" height="11.83"/></g><rect class="cls-7" x="232.99" y="328.23" width="619.34" height="233.55"/><rect class="cls-5" x="230.4" y="410.64" width="620.82" height="67.99"/><rect class="cls-5" x="230.4" y="370.73" width="620.82" height="5.17"/><rect class="cls-5" x="230.4" y="493.79" width="620.82" height="5.17"/><rect class="cls-5" x="230.4" y="510.42" width="620.82" height="5.17"/><rect class="cls-5" x="230.4" y="388.47" width="620.82" height="5.17"/><rect class="cls-8" x="229.29" y="328.97" width="619.34" height="11.83"/><g class="cls-6"><rect class="cls-5" x="229.29" y="548.48" width="619.34" height="11.83"/></g><path class="cls-4" d="M856.67,566.67H225.32V321.13H856.67Zm-619.34-12H844.67V333.13H237.32Z"/><path class="cls-8" d="M720,507.09l79,14.09c8.44,1.5,16.31-4.25,16.31-11.92v-8.09Z"/><path class="cls-8" d="M589.22,507.09l79,14.09c8.44,1.5,16.31-4.25,16.31-11.92v-8.09Z"/><rect class="cls-9" x="588.48" y="379.78" width="93.12" height="128.6" rx="28.52" ry="28.52"/><rect class="cls-9" x="718.56" y="379.78" width="93.12" height="128.6" rx="28.52" ry="28.52"/><path class="cls-10" d="M681.6,394.2v11.46c0-5.82-4.72-12.39-10.54-12.39l-78-5.91c-5.82,0-4.63,6.94-4.63,12.76V394.2A10.54,10.54,0,0,1,599,383.66h72A10.54,10.54,0,0,1,681.6,394.2Z"/><path class="cls-11" d="M681.23,393.1v17.84l-91.59-23.31a10.54,10.54,0,0,1,9-5.07h72A10.54,10.54,0,0,1,681.23,393.1Z"/><path class="cls-10" d="M810.94,394.2v11.46c0-5.82-4.72-12.39-10.54-12.39l-78-5.91c-5.82,0-4.63,6.94-4.63,12.76V394.2a10.54,10.54,0,0,1,10.54-10.54h72A10.54,10.54,0,0,1,810.94,394.2Z"/><path class="cls-11" d="M810.57,393.1v17.84L719,387.62a10.54,10.54,0,0,1,9-5.07h72A10.54,10.54,0,0,1,810.57,393.1Z"/><rect class="cls-4" x="717.45" y="442.32" width="94.23" height="5"/><rect class="cls-4" x="763.36" y="378.68" width="5" height="127.86"/><path class="cls-4" d="M783.16,515.12H747.07a34.56,34.56,0,0,1-34.52-34.52V409a34.56,34.56,0,0,1,34.52-34.52h36.09A34.56,34.56,0,0,1,817.68,409v71.57A34.56,34.56,0,0,1,783.16,515.12Zm-36.09-128.6A22.54,22.54,0,0,0,724.56,409v71.57a22.54,22.54,0,0,0,22.52,22.52h36.09a22.54,22.54,0,0,0,22.52-22.52V409a22.54,22.54,0,0,0-22.52-22.52Z"/><rect class="cls-4" x="587.37" y="442.32" width="94.23" height="5"/><rect class="cls-4" x="633.28" y="378.68" width="5" height="127.86"/><path class="cls-4" d="M653.09,515.12H617a34.56,34.56,0,0,1-34.52-34.52V409A34.56,34.56,0,0,1,617,374.52h36.09A34.56,34.56,0,0,1,687.6,409v71.57A34.56,34.56,0,0,1,653.09,515.12ZM617,386.52A22.54,22.54,0,0,0,594.48,409v71.57A22.54,22.54,0,0,0,617,503.12h36.09a22.54,22.54,0,0,0,22.52-22.52V409a22.54,22.54,0,0,0-22.52-22.52Z"/><path class="cls-8" d="M420.71,507.09l79,14.09c8.44,1.5,16.31-4.25,16.31-11.92v-8.09Z"/><path class="cls-8" d="M289.9,507.09l79,14.09c8.44,1.5,16.31-4.25,16.31-11.92v-8.09Z"/><rect class="cls-9" x="289.16" y="379.78" width="93.12" height="128.6" rx="28.52" ry="28.52"/><rect class="cls-9" x="419.23" y="379.78" width="93.12" height="128.6" rx="28.52" ry="28.52"/><path class="cls-10" d="M382.28,394.2v11.46c0-5.82-4.72-12.39-10.54-12.39l-78-5.91c-5.82,0-4.63,6.94-4.63,12.76V394.2a10.54,10.54,0,0,1,10.54-10.54h72A10.54,10.54,0,0,1,382.28,394.2Z"/><path class="cls-11" d="M381.91,393.1v17.84l-91.59-23.31a10.54,10.54,0,0,1,9-5.07h72A10.54,10.54,0,0,1,381.91,393.1Z"/><path class="cls-10" d="M511.62,394.2v11.46c0-5.82-4.72-12.39-10.54-12.39l-78-5.91c-5.82,0-4.63,6.94-4.63,12.76V394.2A10.54,10.54,0,0,1,429,383.66h72A10.54,10.54,0,0,1,511.62,394.2Z"/><path class="cls-11" d="M511.25,393.1v17.84l-91.59-23.31a10.54,10.54,0,0,1,9-5.07h72A10.54,10.54,0,0,1,511.25,393.1Z"/><rect class="cls-4" x="418.12" y="442.32" width="94.23" height="5"/><rect class="cls-4" x="464.03" y="378.68" width="5" height="127.86"/><path class="cls-4" d="M483.84,515.12H447.75a34.56,34.56,0,0,1-34.52-34.52V409a34.56,34.56,0,0,1,34.52-34.52h36.09A34.56,34.56,0,0,1,518.36,409v71.57A34.56,34.56,0,0,1,483.84,515.12Zm-36.09-128.6A22.54,22.54,0,0,0,425.23,409v71.57a22.54,22.54,0,0,0,22.52,22.52h36.09a22.54,22.54,0,0,0,22.52-22.52V409a22.54,22.54,0,0,0-22.52-22.52Z"/><rect class="cls-4" x="288.05" y="442.32" width="94.23" height="5"/><rect class="cls-4" x="333.96" y="378.68" width="5" height="127.86"/><path class="cls-4" d="M353.76,515.12H317.67a34.56,34.56,0,0,1-34.52-34.52V409a34.56,34.56,0,0,1,34.52-34.52h36.09A34.56,34.56,0,0,1,388.28,409v71.57A34.56,34.56,0,0,1,353.76,515.12Zm-36.09-128.6A22.54,22.54,0,0,0,295.16,409v71.57a22.54,22.54,0,0,0,22.52,22.52h36.09a22.54,22.54,0,0,0,22.52-22.52V409a22.54,22.54,0,0,0-22.52-22.52Z"/><rect class="cls-7" x="232.99" y="81.02" width="619.34" height="233.55"/><rect class="cls-5" x="230.4" y="166.75" width="620.82" height="67.99"/><rect class="cls-5" x="230.4" y="126.84" width="620.82" height="5.17"/><rect class="cls-5" x="230.4" y="249.89" width="620.82" height="5.17"/><rect class="cls-5" x="230.4" y="266.52" width="620.82" height="5.17"/><rect class="cls-5" x="230.4" y="144.58" width="620.82" height="5.17"/><rect class="cls-8" x="229.29" y="81.75" width="619.34" height="11.83"/><g class="cls-6"><rect class="cls-5" x="229.29" y="301.26" width="619.34" height="11.83"/></g><path class="cls-4" d="M856.67,319.45H225.32V73.91H856.67Zm-619.34-12H844.67V85.91H237.32Z"/><path class="cls-8" d="M720,259.87l79,14.09c8.44,1.5,16.31-4.25,16.31-11.92V254Z"/><path class="cls-8" d="M589.22,259.87l79,14.09c8.44,1.5,16.31-4.25,16.31-11.92V254Z"/><rect class="cls-9" x="588.48" y="132.57" width="93.12" height="128.6" rx="28.52" ry="28.52"/><rect class="cls-9" x="718.56" y="132.57" width="93.12" height="128.6" rx="28.52" ry="28.52"/><path class="cls-10" d="M681.6,147v11.46c0-5.82-4.72-12.39-10.54-12.39l-78-5.91c-5.82,0-4.63,6.94-4.63,12.76V147A10.54,10.54,0,0,1,599,136.45h72A10.54,10.54,0,0,1,681.6,147Z"/><path class="cls-11" d="M681.23,145.88v17.84L589.64,140.4a10.54,10.54,0,0,1,9-5.07h72A10.54,10.54,0,0,1,681.23,145.88Z"/><path class="cls-10" d="M810.94,147v11.46c0-5.82-4.72-12.39-10.54-12.39l-78-5.91c-5.82,0-4.63,6.94-4.63,12.76V147a10.54,10.54,0,0,1,10.54-10.54h72A10.54,10.54,0,0,1,810.94,147Z"/><path class="cls-11" d="M810.57,145.88v17.84L719,140.4a10.54,10.54,0,0,1,9-5.07h72A10.54,10.54,0,0,1,810.57,145.88Z"/><rect class="cls-4" x="717.45" y="195.1" width="94.23" height="5"/><rect class="cls-4" x="763.36" y="131.46" width="5" height="127.86"/><path class="cls-4" d="M783.16,267.9H747.07a34.56,34.56,0,0,1-34.52-34.52V161.82a34.56,34.56,0,0,1,34.52-34.52h36.09a34.56,34.56,0,0,1,34.52,34.52v71.57A34.56,34.56,0,0,1,783.16,267.9ZM747.07,139.3a22.54,22.54,0,0,0-22.52,22.52v71.57a22.54,22.54,0,0,0,22.52,22.52h36.09a22.54,22.54,0,0,0,22.52-22.52V161.82a22.54,22.54,0,0,0-22.52-22.52Z"/><rect class="cls-4" x="587.37" y="195.1" width="94.23" height="5"/><rect class="cls-4" x="633.28" y="131.46" width="5" height="127.86"/><path class="cls-4" d="M653.09,267.9H617a34.56,34.56,0,0,1-34.52-34.52V161.82A34.56,34.56,0,0,1,617,127.3h36.09a34.56,34.56,0,0,1,34.52,34.52v71.57A34.56,34.56,0,0,1,653.09,267.9ZM617,139.3a22.54,22.54,0,0,0-22.52,22.52v71.57A22.54,22.54,0,0,0,617,255.9h36.09a22.54,22.54,0,0,0,22.52-22.52V161.82a22.54,22.54,0,0,0-22.52-22.52Z"/><path class="cls-8" d="M420.71,259.87l79,14.09c8.44,1.5,16.31-4.25,16.31-11.92V254Z"/><path class="cls-8" d="M289.9,259.87l79,14.09c8.44,1.5,16.31-4.25,16.31-11.92V254Z"/><rect class="cls-9" x="289.16" y="132.57" width="93.12" height="128.6" rx="28.52" ry="28.52"/><rect class="cls-9" x="419.23" y="132.57" width="93.12" height="128.6" rx="28.52" ry="28.52"/><path class="cls-10" d="M382.28,147v11.46c0-5.82-4.72-12.39-10.54-12.39l-78-5.91c-5.82,0-4.63,6.94-4.63,12.76V147a10.54,10.54,0,0,1,10.54-10.54h72A10.54,10.54,0,0,1,382.28,147Z"/><path class="cls-11" d="M381.91,145.88v17.84L290.32,140.4a10.54,10.54,0,0,1,9-5.07h72A10.54,10.54,0,0,1,381.91,145.88Z"/><path class="cls-10" d="M511.62,147v11.46c0-5.82-4.72-12.39-10.54-12.39l-78-5.91c-5.82,0-4.63,6.94-4.63,12.76V147A10.54,10.54,0,0,1,429,136.45h72A10.54,10.54,0,0,1,511.62,147Z"/><path class="cls-11" d="M511.25,145.88v17.84L419.65,140.4a10.54,10.54,0,0,1,9-5.07h72A10.54,10.54,0,0,1,511.25,145.88Z"/><rect class="cls-4" x="418.12" y="195.1" width="94.23" height="5"/><rect class="cls-4" x="464.03" y="131.46" width="5" height="127.86"/><path class="cls-4" d="M483.84,267.9H447.75a34.56,34.56,0,0,1-34.52-34.52V161.82a34.56,34.56,0,0,1,34.52-34.52h36.09a34.56,34.56,0,0,1,34.52,34.52v71.57A34.56,34.56,0,0,1,483.84,267.9ZM447.75,139.3a22.54,22.54,0,0,0-22.52,22.52v71.57a22.54,22.54,0,0,0,22.52,22.52h36.09a22.54,22.54,0,0,0,22.52-22.52V161.82a22.54,22.54,0,0,0-22.52-22.52Z"/><rect class="cls-4" x="288.05" y="195.1" width="94.23" height="5"/><rect class="cls-4" x="333.96" y="131.46" width="5" height="127.86"/><path class="cls-4" d="M353.76,267.9H317.67a34.56,34.56,0,0,1-34.52-34.52V161.82a34.56,34.56,0,0,1,34.52-34.52h36.09a34.56,34.56,0,0,1,34.52,34.52v71.57A34.56,34.56,0,0,1,353.76,267.9ZM317.67,139.3a22.54,22.54,0,0,0-22.52,22.52v71.57a22.54,22.54,0,0,0,22.52,22.52h36.09a22.54,22.54,0,0,0,22.52-22.52V161.82a22.54,22.54,0,0,0-22.52-22.52Z"/><rect class="cls-12" x="306.15" y="6" width="56.94" height="52.61"/><polygon class="cls-5" points="366.93 58.81 366.93 59.21 309.99 59.21 309.99 6.61 313.73 6.61 313.73 58.81 366.93 58.81"/><rect class="cls-13" x="333.17" y="27.26" width="44.73" height="5.05" transform="translate(385.32 -325.76) rotate(90)"/><path class="cls-4" d="M368.23,64.61H299.29V0h68.94Zm-56.94-12h44.94V12H311.29Z"/><rect class="cls-14" x="197.42" y="46.28" width="686.55" height="34.37"/><rect class="cls-15" x="198.61" y="45.17" width="686.55" height="10.72"/><path class="cls-4" d="M889,85.72H190.46V39.36H889Zm-686.55-12H877V51.36H202.46Z"/><rect class="cls-4" x="196.64" y="62.26" width="687.34" height="5"/><rect class="cls-4" x="229.01" y="64.02" width="4" height="15.89"/><rect class="cls-4" x="241.94" y="64.02" width="4" height="15.89"/><rect class="cls-4" x="254.88" y="64.02" width="4" height="15.89"/><rect class="cls-4" x="267.81" y="64.02" width="4" height="15.89"/><rect class="cls-4" x="280.74" y="64.02" width="4" height="15.89"/><rect class="cls-4" x="290.26" y="64.02" width="4" height="15.89"/><rect class="cls-4" x="303.19" y="64.02" width="4" height="15.89"/><rect class="cls-4" x="316.13" y="64.02" width="4" height="15.89"/><rect class="cls-4" x="329.06" y="64.02" width="4" height="15.89"/><rect class="cls-4" x="342" y="64.02" width="4" height="15.89"/><rect class="cls-4" x="351.51" y="64.02" width="4" height="15.89"/><rect class="cls-4" x="364.44" y="64.02" width="4" height="15.89"/><rect class="cls-4" x="377.38" y="64.02" width="4" height="15.89"/><rect class="cls-4" x="390.31" y="64.02" width="4" height="15.89"/><rect class="cls-4" x="403.25" y="64.02" width="4" height="15.89"/><rect class="cls-4" x="412.76" y="64.02" width="4" height="15.89"/><rect class="cls-4" x="425.69" y="64.02" width="4" height="15.89"/><rect class="cls-4" x="438.63" y="64.02" width="4" height="15.89"/><rect class="cls-4" x="451.56" y="64.02" width="4" height="15.89"/><rect class="cls-4" x="464.5" y="64.02" width="4" height="15.89"/><rect class="cls-4" x="474.01" y="64.02" width="4" height="15.89"/><rect class="cls-4" x="486.95" y="64.02" width="4" height="15.89"/><rect class="cls-4" x="499.88" y="64.02" width="4" height="15.89"/><rect class="cls-4" x="512.81" y="64.02" width="4" height="15.89"/><rect class="cls-4" x="525.75" y="64.02" width="4" height="15.89"/><rect class="cls-4" x="538.31" y="64.02" width="4" height="15.89"/><rect class="cls-4" x="551.24" y="64.02" width="4" height="15.89"/><rect class="cls-4" x="564.18" y="64.02" width="4" height="15.89"/><rect class="cls-4" x="577.11" y="64.02" width="4" height="15.89"/><rect class="cls-4" x="590.05" y="64.02" width="4" height="15.89"/><rect class="cls-4" x="599.56" y="64.02" width="4" height="15.89"/><rect class="cls-4" x="612.5" y="64.02" width="4" height="15.89"/><rect class="cls-4" x="625.43" y="64.02" width="4" height="15.89"/><rect class="cls-4" x="638.36" y="64.02" width="4" height="15.89"/><rect class="cls-4" x="651.3" y="64.02" width="4" height="15.89"/><rect class="cls-4" x="660.81" y="64.02" width="4" height="15.89"/><rect class="cls-4" x="673.75" y="64.02" width="4" height="15.89"/><rect class="cls-4" x="686.68" y="64.02" width="4" height="15.89"/><rect class="cls-4" x="699.61" y="64.02" width="4" height="15.89"/><rect class="cls-4" x="712.55" y="64.02" width="4" height="15.89"/><rect class="cls-4" x="722.06" y="64.02" width="4" height="15.89"/><rect class="cls-4" x="735" y="64.02" width="4" height="15.89"/><rect class="cls-4" x="747.93" y="64.02" width="4" height="15.89"/><rect class="cls-4" x="760.86" y="64.02" width="4" height="15.89"/><rect class="cls-4" x="773.8" y="64.02" width="4" height="15.89"/><rect class="cls-4" x="783.31" y="64.02" width="4" height="15.89"/><rect class="cls-4" x="796.25" y="64.02" width="4" height="15.89"/><rect class="cls-4" x="809.18" y="64.02" width="4" height="15.89"/><rect class="cls-4" x="822.11" y="64.02" width="4" height="15.89"/><rect class="cls-4" x="835.05" y="64.02" width="4" height="15.89"/><rect class="cls-7" x="232.99" y="575.45" width="619.34" height="233.55"/><rect class="cls-5" x="230.4" y="657.86" width="620.82" height="67.99"/><rect class="cls-5" x="230.4" y="617.95" width="620.82" height="5.17"/><rect class="cls-5" x="230.4" y="741.01" width="620.82" height="5.17"/><rect class="cls-5" x="230.4" y="757.63" width="620.82" height="5.17"/><rect class="cls-5" x="230.4" y="635.69" width="620.82" height="5.17"/><rect class="cls-8" x="229.29" y="579.15" width="619.34" height="11.83"/><polyline class="cls-9" points="293.42 806.04 293.42 625.71 416.1 625.71 416.1 806.04"/><polygon class="cls-16" points="366.09 624.23 302.21 804.57 291.51 804.57 355.38 624.23 366.09 624.23"/><polygon class="cls-16" points="412.57 624.23 348.7 804.57 329.5 804.57 393.37 624.23 412.57 624.23"/><polygon class="cls-4" points="422.11 806.78 410.11 806.78 410.11 632.45 299.42 632.45 299.42 806.78 287.42 806.78 287.42 620.45 422.11 620.45 422.11 806.78"/><path class="cls-4" d="M856.67,813.89H225.32V568.34H856.67Zm-619.34-12H844.67V580.34H237.32Z"/><rect class="cls-12" x="201.77" y="553.87" width="676.18" height="27.72" rx="13.86" ry="13.86"/><path class="cls-13" d="M212,555.92H870.74a8.73,8.73,0,0,1,8.73,8.73v0a0,0,0,0,1,0,0H203.29a0,0,0,0,1,0,0v0a8.73,8.73,0,0,1,8.73-8.73Z"/><path class="cls-4" d="M866,588.11H217.54a19.86,19.86,0,1,1,0-39.72H866a19.86,19.86,0,0,1,0,39.72ZM217.54,560.38a7.86,7.86,0,1,0,0,15.72H866a7.86,7.86,0,0,0,0-15.72Z"/><rect class="cls-12" x="201.77" y="305.54" width="676.18" height="27.72" rx="13.86" ry="13.86"/><path class="cls-13" d="M212,307.6H870.74a8.73,8.73,0,0,1,8.73,8.73v0a0,0,0,0,1,0,0H203.29a0,0,0,0,1,0,0v0A8.73,8.73,0,0,1,212,307.6Z"/><path class="cls-4" d="M866,339.78H217.54a19.86,19.86,0,1,1,0-39.72H866a19.86,19.86,0,0,1,0,39.72ZM217.54,312.05a7.86,7.86,0,1,0,0,15.72H866a7.86,7.86,0,0,0,0-15.72Z"/><rect class="cls-4" x="297.11" y="642.43" width="117.51" height="5"/><rect class="cls-4" x="296.38" y="657.95" width="117.51" height="5"/><rect class="cls-4" x="326.02" y="625.34" width="5" height="36.58"/><rect class="cls-4" x="380.72" y="625.34" width="5" height="36.58"/><rect class="cls-4" x="351.13" y="661.19" width="8" height="146.34"/><rect class="cls-9" x="479.45" y="609.82" width="142.41" height="152.99"/><polygon class="cls-16" points="563.5 606.94 530.36 759.93 502.79 759.93 535.93 606.94 563.5 606.94"/><polygon class="cls-16" points="599.84 606.94 566.69 759.93 557.72 759.93 590.86 606.94 599.84 606.94"/><rect class="cls-4" x="515.19" y="605.53" width="5" height="156.99"/><rect class="cls-4" x="550.79" y="605.53" width="5" height="156.99"/><rect class="cls-4" x="586.4" y="605.53" width="5" height="156.99"/><rect class="cls-4" x="479.92" y="645.92" width="146.74" height="5"/><rect class="cls-4" x="479.92" y="681.52" width="146.74" height="5"/><rect class="cls-4" x="479.92" y="717.13" width="146.74" height="5"/><path class="cls-4" d="M630.5,766.52H476.09v-165H630.5Zm-142.41-12H618.5v-141H488.09Z"/><rect class="cls-9" x="658.1" y="609.82" width="142.41" height="152.99"/><polygon class="cls-16" points="742.15 606.94 709.01 759.93 681.44 759.93 714.58 606.94 742.15 606.94"/><polygon class="cls-16" points="776.49 606.94 743.34 759.93 734.37 759.93 767.51 606.94 776.49 606.94"/><rect class="cls-4" x="693.84" y="605.53" width="5" height="156.99"/><rect class="cls-4" x="729.44" y="605.53" width="5" height="156.99"/><rect class="cls-4" x="765.04" y="605.53" width="5" height="156.99"/><rect class="cls-4" x="658.57" y="645.92" width="146.74" height="5"/><rect class="cls-4" x="658.57" y="681.52" width="146.74" height="5"/><rect class="cls-4" x="658.57" y="717.13" width="146.74" height="5"/><path class="cls-4" d="M809.15,766.52H654.74v-165H809.15Zm-142.41-12H797.15v-141H666.74Z"/><path class="cls-17" d="M914.24,204.25a11.8,11.8,0,0,1-5,1.1h5Z"/><path class="cls-18" d="M629.12,90.35V212.6a12,12,0,0,0,12,12H858.61v-22h55.63V63.35a12,12,0,0,0-12-12H657.12v39Z"/><rect class="cls-5" x="657.24" y="29.35" width="285" height="171" rx="12" ry="12"/><rect class="cls-12" x="659.24" y="185.85" width="185" height="11"/><path class="cls-14" d="M940.12,189.6V42.6a12,12,0,0,0-12-12H843.24v171h84.88A12,12,0,0,0,940.12,189.6Z"/><path class="cls-19" d="M914.24,204.25a11.8,11.8,0,0,1-5,1.1h17a12,12,0,0,0,8.74-3.79,12.24,12.24,0,0,0,2.29-3.5,13.48,13.48,0,0,0,.48-1.31,11.94,11.94,0,0,0,.49-3.4v-147a12,12,0,0,0-12-12h-17a12,12,0,0,1,12,12v147a11.88,11.88,0,0,1-2.27,7,11.24,11.24,0,0,1-1,1.25,14.41,14.41,0,0,1-1.07,1A11.76,11.76,0,0,1,914.24,204.25Z"/><path class="cls-4" d="M930.12,208.6h-261A18,18,0,0,1,654.46,201a17.84,17.84,0,0,1-3.34-10.42V43.6A17.54,17.54,0,0,1,651.3,41,18.07,18.07,0,0,1,669.12,25.6h261a17.72,17.72,0,0,1,5.29.8h.34l1,.49A18.12,18.12,0,0,1,948.12,43.6v147A18,18,0,0,1,937.42,207,17.71,17.71,0,0,1,930.12,208.6Zm-261-171a6,6,0,0,0-5.94,5.17,5.55,5.55,0,0,0-.06.83v147a5.91,5.91,0,0,0,1.11,3.45,6,6,0,0,0,4.89,2.55h261a5.82,5.82,0,0,0,2.4-.51,6,6,0,0,0,3.6-5.49V43.6a6,6,0,0,0-3-5.19h0l-1-.48a5.75,5.75,0,0,0-2-.33Z"/><rect class="cls-4" x="839.24" y="33.35" width="12" height="168"/><path class="cls-4" d="M699.46,146.87a6,6,0,0,1,.17-.92l16.7-54.37A4.23,4.23,0,0,1,718.89,89a11.36,11.36,0,0,1,4.63-.9,10.67,10.67,0,0,1,4.67,1A4.5,4.5,0,0,1,730.77,92l16.68,54.37a5.26,5.26,0,0,1,.17.86q0,1.9-2.33,3.28a9.23,9.23,0,0,1-4.75,1.38q-3.2,0-3.8-2.25l-3.29-11.5H714.93l-3.22,11.5q-.68,2.24-4.28,2.24a10.92,10.92,0,0,1-5.39-1.43Q699.46,149,699.46,146.87ZM717.4,129.3h14.95l-7.52-26.54Z"/><path class="cls-4" d="M754.91,148.4V92.13a3,3,0,0,1,1.38-2.42,5.75,5.75,0,0,1,3.54-1h15.3q9.25,0,14.78,4.75t5.53,15v23.6q0,10.29-5.53,15t-14.78,4.75h-15.3a5.75,5.75,0,0,1-3.54-1A3,3,0,0,1,754.91,148.4Zm11.24-6.4h9q9.08,0,9.08-9.94v-23.6q0-9.94-9.08-9.94h-9Z"/><path class="cls-18" d="M829.54,469.08a111.31,111.31,0,1,0,87.55,91.85q2.22,4.42,4.07,9.09a111.31,111.31,0,0,0-54.08-85.67A111.57,111.57,0,0,0,829.54,469.08Z"/><path class="cls-9" d="M817.33,447.76a108.4,108.4,0,1,0,.38,0Z"/><path class="cls-20" d="M926.85,557.42a108.54,108.54,0,0,1-211,35.68,13,13,0,0,1,1.75-.75c11.07-3.86,21,7.22,29.26,15.52,17.43,17.51,43.27,26.83,67.61,22.65s46.17-22.5,52.81-46.29c6-21.41.39-46.19,12.36-64.92a40.46,40.46,0,0,1,31.62-18.19A107.81,107.81,0,0,1,926.85,557.42Z"/><path class="cls-4" d="M820.33,672.06a114.53,114.53,0,0,1,0-229.06h.38a114.53,114.53,0,0,1-.38,229.06Zm0-217.06a102.27,102.27,0,1,0,.37,0Z"/><path class="cls-5" d="M861.86,612.54c-32.66,4.63-72.92-7.35-72.92-7.35l-19.85,3.95a5.89,5.89,0,0,1-7-6A395.17,395.17,0,0,0,761,560.58a5.87,5.87,0,0,1,8.24-5.93,34.17,34.17,0,0,0,14.36,3.52c12.05-.1,22.57-9.34,27.95-20.31s6.6-18.08,7.73-30.28c.49-5.33,1.27-11.24,5.32-14.66,7-5.93,18.52,1,20.79,9.95s-1.36,12.88-4.47,21.61c-2,5.68-1.56,6-3.18,11.85a3.6,3.6,0,0,0,.06,3,3.17,3.17,0,0,0,2.3,1.06c6.54.84,10.83,3.28,17.38,4A16.31,16.31,0,0,1,871,554.93V604a8.46,8.46,0,0,1-9.1,8.51Z"/></g></g></svg>