<svg xmlns="http://www.w3.org/2000/svg" xmlns:xlink="http://www.w3.org/1999/xlink" viewBox="0 0 1286.04 742.93"><defs><style>.cls-1{fill:url(#linear-gradient);}.cls-2{fill:#e7f6ff;}.cls-3{fill:none;}.cls-4{fill:#426572;}.cls-5{fill:#fff;}.cls-6{fill:#e8edf7;}.cls-7{fill:#c1cede;}.cls-8{fill:#f1f6fe;}.cls-9{fill:#87d6fe;}.cls-10{fill:#a8ef9e;}.cls-11{fill:#307fc3;}.cls-12{fill:#4da7df;opacity:0.5;}.cls-13,.cls-14{fill:#606060;}.cls-13{opacity:0.1;}.cls-14{opacity:0.2;}.cls-15{fill:#dee6f1;}.cls-16{fill:#e8837e;}.cls-17{fill:#d66765;}</style><linearGradient id="linear-gradient" x1="1.32" y1="371.19" x2="1254.6" y2="371.19" gradientUnits="userSpaceOnUse"><stop offset="0" stop-color="#c5e9fa"/><stop offset="1" stop-color="#c4f4ea"/></linearGradient></defs><title>Asset 21</title><g id="Layer_2" data-name="Layer 2"><g id="Layer_1-2" data-name="Layer 1"><path class="cls-1" d="M1218.18,449.46c-45.45,117.68-130.9,220.78-249.59,266.09a431.14,431.14,0,0,1-47.21,14.95C836.7,752.09,744.06,744.58,666,705.24c-33.13-16.71-63.34-38.79-96.59-55.26S498.19,622.73,462,630.86c-31.16,7-57.45,27.06-83.92,44.93-62.4,42.13-137.43,75.47-211.32,61-34-6.65-67.48-25.07-83.27-55.86-34.9-68.07,30.92-149,17.59-224.28-8.53-48.18-47.49-84.26-71.71-126.78C-12.08,257.14-7.18,160.53,41.42,92.38S179.74-11.92,262,3.54C362.31,22.4,438.15,107.29,535.69,137.33c61,18.77,127.23,13.17,185.49-11.55,94.13-39.95,223.45-101.22,329.38-91.24,56.33,5.31,111.58,30.31,148.76,73,47,53.89,61.09,130.4,53.25,201.46A563.35,563.35,0,0,1,1218.18,449.46Z"/><path class="cls-2" d="M1248.42,542.54a26.24,26.24,0,0,1-6.2-.75,25.94,25.94,0,1,1,6.2.75Zm-.07-40.18a14.09,14.09,0,0,0-3.29,27.78h0a14.08,14.08,0,1,0,6.64-27.37A14.16,14.16,0,0,0,1248.35,502.35Z"/><circle class="cls-2" cx="1213.76" cy="567.4" r="11.33" transform="translate(376.29 1613.25) rotate(-76.37)"/><path class="cls-2" d="M55.19,540.07a26.09,26.09,0,1,1,1.14,0Zm0-40.17H54.6a14.09,14.09,0,1,0,.61,0Z"/><circle class="cls-2" cx="36.08" cy="572.54" r="11.33" transform="translate(-24.62 2.08) rotate(-2.47)"/><path class="cls-2" d="M709.08,118.26A26.07,26.07,0,1,1,724,113.55,26.07,26.07,0,0,1,709.08,118.26ZM709,78.1a14.13,14.13,0,1,0,2.47.22A14.17,14.17,0,0,0,709,78.1Z"/><circle class="cls-2" cx="649.4" cy="107.59" r="11.33" transform="matrix(0.82, -0.57, 0.57, 0.82, 55.91, 392.32)"/><rect class="cls-3" x="713.36" y="105.14" width="44.48" height="44.48"/><rect class="cls-3" x="713.36" y="105.14" width="44.48" height="44.48"/><path class="cls-4" d="M839.66,724.13"/><path class="cls-5" d="M1286,252.66a41.46,41.46,0,0,0-41.46-41.46c-.92,0-1.83,0-2.73.09.06-.9.09-1.81.09-2.73a41.46,41.46,0,1,0-81.56,10.54,41.46,41.46,0,1,0-32.61,74.19,41.46,41.46,0,0,0,68.84,13.94,41.46,41.46,0,0,0,62.66-15.8A41.47,41.47,0,0,0,1286,252.66Z"/><path class="cls-5" d="M191.45,153A41.46,41.46,0,0,0,150,111.5c-.92,0-1.83,0-2.73.09.06-.9.09-1.81.09-2.73A41.46,41.46,0,1,0,65.8,119.4a41.46,41.46,0,1,0-32.61,74.19A41.46,41.46,0,0,0,102,207.53a41.46,41.46,0,0,0,62.66-15.8A41.47,41.47,0,0,0,191.45,153Z"/><path class="cls-4" d="M954.18,742.93H357.68v-13h596.5a6.5,6.5,0,1,1,0,13Z"/><path class="cls-4" d="M331,742.93H294.53a6.5,6.5,0,1,1,0-13H331a6.5,6.5,0,1,1,0,13Z"/><path class="cls-4" d="M270.86,742.93H259.24a6.5,6.5,0,0,1,0-13h11.62a6.5,6.5,0,0,1,0,13Z"/><path class="cls-4" d="M1163.34,742.93H980v-13h183.34a6.5,6.5,0,0,1,0,13Z"/><path class="cls-4" d="M226,742.93H42.65v-13H226a6.5,6.5,0,0,1,0,13Z"/><path class="cls-6" d="M767.1,214.47v462a50,50,0,0,1-37.17,48.32h0a49.94,49.94,0,0,1-12.79,1.65H499.07a50,50,0,0,1-50-50v-462a49.78,49.78,0,0,1,7.38-26.16c.63-1,1.3-2,2-3a50.06,50.06,0,0,1,21.82-17.18h0a49.56,49.56,0,0,1,18.75-3.65H717.12A50,50,0,0,1,767.1,214.47Z"/><path class="cls-4" d="M711.13,734.49h-218a56,56,0,0,1-56-56v-462a55.76,55.76,0,0,1,15-38.11c.64-.7,1.36-1.44,2.25-2.28a55.74,55.74,0,0,1,38.76-15.59h218a56,56,0,0,1,56,56v462a55.94,55.94,0,0,1-56,56Zm-218-562a43.74,43.74,0,0,0-30.45,12.26c-.69.66-1.24,1.21-1.73,1.75a43.84,43.84,0,0,0-11.8,30v462a44,44,0,0,0,44,44h218a43.94,43.94,0,0,0,44-44v-462a44,44,0,0,0-44-44Z"/><rect class="cls-7" x="474.61" y="196.49" width="257" height="504" rx="29.87" ry="29.87"/><path class="cls-8" d="M509,215.49H697.24a16.84,16.84,0,0,1,16.84,16.84V657.69a24.45,24.45,0,0,1-24.45,24.45h-173a24.45,24.45,0,0,1-24.45-24.45V232.33A16.84,16.84,0,0,1,509,215.49Z"/><path class="cls-4" d="M701.73,704.49H504.48a35.91,35.91,0,0,1-35.87-35.87V224.36a35.91,35.91,0,0,1,35.87-35.87H701.73a35.91,35.91,0,0,1,35.87,35.87V668.61A35.91,35.91,0,0,1,701.73,704.49Zm-197.25-504a23.9,23.9,0,0,0-23.87,23.87V668.61a23.9,23.9,0,0,0,23.87,23.87H701.73a23.9,23.9,0,0,0,23.87-23.87V224.36a23.9,23.9,0,0,0-23.87-23.87Z"/><rect class="cls-9" x="531.49" y="354.49" width="154.33" height="114" rx="12" ry="12"/><path class="cls-4" d="M673.55,476.49H543.22a18,18,0,0,1-18-18v-90a18,18,0,0,1,18-18H673.55a18,18,0,0,1,18,18v90A18,18,0,0,1,673.55,476.49Zm-130.33-114a6,6,0,0,0-6,6v90a6,6,0,0,0,6,6H673.55a6,6,0,0,0,6-6v-90a6,6,0,0,0-6-6Z"/><rect class="cls-10" x="535.66" y="490.49" width="147.35" height="63" rx="12" ry="12"/><path class="cls-4" d="M669.15,560.49H545.81a18,18,0,0,1-18-18v-39a18,18,0,0,1,18-18H669.15a18,18,0,0,1,18,18v39A18,18,0,0,1,669.15,560.49Zm-123.35-63a6,6,0,0,0-6,6v39a6,6,0,0,0,6,6H669.15a6,6,0,0,0,6-6v-39a6,6,0,0,0-6-6Z"/><rect class="cls-10" x="535.66" y="575.49" width="147.35" height="63" rx="12" ry="12"/><path class="cls-4" d="M669.15,645.49H545.81a18,18,0,0,1-18-18v-39a18,18,0,0,1,18-18H669.15a18,18,0,0,1,18,18v39A18,18,0,0,1,669.15,645.49Zm-123.35-63a6,6,0,0,0-6,6v39a6,6,0,0,0,6,6H669.15a6,6,0,0,0,6-6v-39a6,6,0,0,0-6-6Z"/><path class="cls-11" d="M718.94,230.12v11.46c0-5.82-4.72-12.39-10.54-12.39l-78-5.91c-5.82,0-4.63,6.94-4.63,12.76v-5.91a10.54,10.54,0,0,1,10.54-10.54h72A10.54,10.54,0,0,1,718.94,230.12Z"/><path class="cls-12" d="M718.57,229v17.84L627,223.54a10.54,10.54,0,0,1,9-5.07h72A10.54,10.54,0,0,1,718.57,229Z"/><path class="cls-13" d="M822.24,287.39a11.8,11.8,0,0,1-5,1.1h5Z"/><path class="cls-14" d="M537.12,173.49V295.74a12,12,0,0,0,12,12H766.61v-22h55.63V146.49a12,12,0,0,0-12-12H565.12v39Z"/><rect class="cls-5" x="565.24" y="112.49" width="285" height="171" rx="12" ry="12"/><rect class="cls-15" x="567.24" y="268.99" width="185" height="11"/><path class="cls-16" d="M848.12,272.74v-147a12,12,0,0,0-12-12H751.24v171h84.88A12,12,0,0,0,848.12,272.74Z"/><path class="cls-17" d="M822.24,287.39a11.8,11.8,0,0,1-5,1.1h17A12,12,0,0,0,843,284.7a12.24,12.24,0,0,0,2.29-3.5,13.48,13.48,0,0,0,.48-1.31,11.94,11.94,0,0,0,.49-3.4v-147a12,12,0,0,0-12-12h-17a12,12,0,0,1,12,12v147a11.88,11.88,0,0,1-2.27,7,11.24,11.24,0,0,1-1,1.25,14.41,14.41,0,0,1-1.07,1A11.76,11.76,0,0,1,822.24,287.39Z"/><path class="cls-4" d="M838.12,291.74h-261a18,18,0,0,1-14.66-7.58,17.84,17.84,0,0,1-3.34-10.42v-147a17.54,17.54,0,0,1,.18-2.55,18.07,18.07,0,0,1,17.82-15.45h261a17.72,17.72,0,0,1,5.29.8h.34l1,.49a18.12,18.12,0,0,1,11.33,16.71v147a18,18,0,0,1-10.7,16.44A17.71,17.71,0,0,1,838.12,291.74Zm-261-171a6,6,0,0,0-5.94,5.17,5.55,5.55,0,0,0-.06.83v147a5.91,5.91,0,0,0,1.11,3.45,6,6,0,0,0,4.89,2.55h261a5.82,5.82,0,0,0,2.4-.51,6,6,0,0,0,3.6-5.49v-147a6,6,0,0,0-3-5.19h0l-1-.48a5.75,5.75,0,0,0-2-.33Z"/><rect class="cls-4" x="747.24" y="116.49" width="12" height="168"/><path class="cls-4" d="M607.46,230a6,6,0,0,1,.17-.92l16.7-54.37a4.23,4.23,0,0,1,2.55-2.53,11.36,11.36,0,0,1,4.63-.9,10.67,10.67,0,0,1,4.67,1,4.5,4.5,0,0,1,2.59,2.81l16.68,54.37a5.26,5.26,0,0,1,.17.86q0,1.9-2.33,3.28a9.23,9.23,0,0,1-4.75,1.38q-3.2,0-3.8-2.25l-3.29-11.5H622.93l-3.22,11.5Q619,235,615.43,235a10.92,10.92,0,0,1-5.39-1.43Q607.46,232.14,607.46,230Zm17.94-17.57h14.95l-7.52-26.54Z"/><path class="cls-4" d="M662.91,231.54V175.27a3,3,0,0,1,1.38-2.42,5.75,5.75,0,0,1,3.54-1h15.3q9.25,0,14.78,4.75t5.53,15v23.6q0,10.29-5.53,15T683.14,235h-15.3a5.75,5.75,0,0,1-3.54-1A3,3,0,0,1,662.91,231.54Zm11.24-6.4h9q9.08,0,9.08-9.94V191.6q0-9.94-9.08-9.94h-9Z"/></g></g></svg>