<svg xmlns="http://www.w3.org/2000/svg" xmlns:xlink="http://www.w3.org/1999/xlink" viewBox="0 0 1286.04 813.04"><defs><style>.cls-1{fill:url(#linear-gradient);}.cls-2{fill:#e7f6ff;}.cls-3{fill:none;}.cls-19,.cls-4{fill:#426572;}.cls-5{fill:#fff;}.cls-6{fill:#ebf0f9;}.cls-13,.cls-7{opacity:0.5;}.cls-8{fill:#bbd2e5;}.cls-9{fill:#87d6fe;}.cls-10{fill:#37b5ff;}.cls-11{fill:#ef4f43;}.cls-12{fill:#e8837e;}.cls-13{fill:#d9e2ef;}.cls-14{fill:#dd3e3a;}.cls-15{fill:#d66765;}.cls-16{fill:#dee6f1;}.cls-17{fill:#a7bcd5;}.cls-18{fill:#070707;opacity:0.1;}.cls-19{opacity:0.3;}</style><linearGradient id="linear-gradient" x1="1.32" y1="441.3" x2="1254.6" y2="441.3" gradientUnits="userSpaceOnUse"><stop offset="0" stop-color="#c5e9fa"/><stop offset="1" stop-color="#c4f4ea"/></linearGradient></defs><title>Asset 14</title><g id="Layer_2" data-name="Layer 2"><g id="Layer_1-2" data-name="Layer 1"><path class="cls-1" d="M1218.18,519.57c-45.45,117.68-130.9,220.78-249.59,266.09a431.14,431.14,0,0,1-47.21,14.95C836.7,822.2,744.06,814.69,666,775.35c-33.13-16.71-63.34-38.79-96.59-55.26S498.19,692.84,462,701c-31.16,7-57.45,27.06-83.92,44.93-62.4,42.13-137.43,75.47-211.32,61-34-6.65-67.48-25.07-83.27-55.86-34.9-68.07,30.92-149,17.59-224.28C92.54,478.58,53.57,442.5,29.35,400c-41.44-72.73-36.53-169.34,12.06-237.5S179.74,58.19,262,73.65C362.31,92.51,438.15,177.4,535.69,207.44c61,18.77,127.23,13.17,185.49-11.55,94.13-39.95,223.45-101.22,329.38-91.24,56.33,5.31,111.58,30.31,148.76,73,47,53.89,61.09,130.4,53.25,201.46A563.35,563.35,0,0,1,1218.18,519.57Z"/><path class="cls-2" d="M1248.42,612.65a26.3,26.3,0,0,1-6.2-.75,25.94,25.94,0,1,1,6.2.75Zm0-40.18a14.09,14.09,0,0,0-3.32,27.77h0a14.08,14.08,0,1,0,3.32-27.77Z"/><circle class="cls-2" cx="1213.76" cy="637.51" r="11.33" transform="translate(308.16 1666.84) rotate(-76.37)"/><path class="cls-2" d="M55.19,610.18a26.09,26.09,0,1,1,1.14,0Zm0-40.17H54.6a14.09,14.09,0,1,0,.61,0Z"/><circle class="cls-2" cx="36.08" cy="642.65" r="11.33" transform="translate(-27.64 2.15) rotate(-2.47)"/><path class="cls-2" d="M709.08,188.38A26.06,26.06,0,1,1,724,183.66,26.07,26.07,0,0,1,709.08,188.38ZM709,148.21a14.14,14.14,0,1,0,2.47.22A14.17,14.17,0,0,0,709,148.21Z"/><circle class="cls-2" cx="649.4" cy="177.7" r="11.33" transform="translate(15.66 405.03) rotate(-35.04)"/><rect class="cls-3" x="713.36" y="175.25" width="44.48" height="44.48"/><rect class="cls-3" x="713.36" y="175.25" width="44.48" height="44.48"/><path class="cls-4" d="M839.66,794.24"/><path class="cls-5" d="M1286,322.77a41.46,41.46,0,0,0-41.46-41.46c-.92,0-1.83,0-2.73.09.06-.9.09-1.81.09-2.73a41.46,41.46,0,1,0-81.56,10.54,41.46,41.46,0,1,0-32.61,74.19,41.46,41.46,0,0,0,68.84,13.94,41.46,41.46,0,0,0,62.66-15.8A41.47,41.47,0,0,0,1286,322.77Z"/><path class="cls-5" d="M191.45,223.07A41.46,41.46,0,0,0,150,181.61c-.92,0-1.83,0-2.73.09.06-.9.09-1.81.09-2.73A41.46,41.46,0,1,0,65.8,189.51,41.46,41.46,0,1,0,33.18,263.7,41.46,41.46,0,0,0,102,277.64a41.46,41.46,0,0,0,62.66-15.8A41.47,41.47,0,0,0,191.45,223.07Z"/><path class="cls-4" d="M954.18,813H357.68V800h596.5a6.5,6.5,0,0,1,0,13Z"/><path class="cls-4" d="M331,813H294.53a6.5,6.5,0,0,1,0-13H331a6.5,6.5,0,1,1,0,13Z"/><path class="cls-4" d="M270.86,813H259.24a6.5,6.5,0,0,1,0-13h11.62a6.5,6.5,0,0,1,0,13Z"/><path class="cls-4" d="M1163.34,813H980V800h183.34a6.5,6.5,0,0,1,0,13Z"/><path class="cls-4" d="M226,813H42.65V800H226a6.5,6.5,0,1,1,0,13Z"/><path class="cls-2" d="M291,61.85a23.12,23.12,0,1,1,23.12-23.12A23.15,23.15,0,0,1,291,61.85Zm0-34.25a11.12,11.12,0,1,0,11.12,11.13A11.14,11.14,0,0,0,291,27.6Z"/><circle class="cls-2" cx="340.16" cy="57.17" r="9.66"/><rect class="cls-6" x="429.85" y="200.93" width="468.45" height="578.68" rx="12" ry="12"/><g class="cls-7"><path class="cls-8" d="M480.27,561.42v21.22c-6.14,19.53-15.79,42.36-28.46,67.56-5.21,10-10.8,20.55-16.77,31.39,4.08-6.88,8-13.76,11.8-20.53-4.42,8.39-9.1,17.09-14,25.95v-33q.74-1.38,1.47-2.76c-.49.87-1,1.74-1.47,2.61v-1.22q3.31-6.24,6.43-12.25c13.76-27.36,24-51.94,30-72.52C472.95,565.82,476.63,563.65,480.27,561.42Z"/></g><rect class="cls-9" x="478.18" y="459.28" width="376.16" height="247.05"/><g class="cls-7"><polygon class="cls-10" points="682.27 459.29 604.84 706.33 569.72 706.33 647.15 459.29 682.27 459.29"/><polygon class="cls-10" points="759.55 459.29 682.11 706.33 617.26 706.33 694.69 459.29 759.55 459.29"/></g><path class="cls-8" d="M900.39,222.08v209c-.24-.19-.47-.39-.7-.59a43.69,43.69,0,0,1-4-3.94c-.24-.26-.47-.52-.7-.78v2.16A44.15,44.15,0,0,1,881.82,407a43.41,43.41,0,0,1-1.67-12,44.1,44.1,0,0,1-44,44,43.69,43.69,0,0,1-24.84-7.75q-1.36-1.09-2.62-2.3c.5.53,1,1,1.56,1.54a44,44,0,0,1-18.05-35.45,44.1,44.1,0,0,1-44,44,44.09,44.09,0,0,1-44-44,43.48,43.48,0,0,1-1,9.15c-.24-1-.45-2.08-.6-3.14a43.56,43.56,0,0,1-6.53,19.33l0,.07a43.82,43.82,0,0,1-55.92,13.66,44.35,44.35,0,0,1-23-30.31h0a43.71,43.71,0,0,1-.89-8.76,43.71,43.71,0,0,1-.89,8.76h0a44,44,0,0,1-78.9,16.64l0-.07a43.59,43.59,0,0,1-6.7-23.25,43.82,43.82,0,0,1-.51,6.66,43.71,43.71,0,0,1-.89-8.76,43.56,43.56,0,0,1-.31,5.16h0A44.12,44.12,0,0,1,484.46,439a43.58,43.58,0,0,1-20.1-4.89,44.54,44.54,0,0,1-15.72-13.66l0-.07a43.48,43.48,0,0,1-6-15.46c-.13.7-.27,1.4-.43,2.08a43.41,43.41,0,0,1-1.67-12,43.64,43.64,0,0,1-8.54,26l-.7.93a41.7,41.7,0,0,1-4,4.49v-202c1.55-.57,3.12-1.09,4.72-1.56l1.53-.44c2.07-.59,4.18-1.1,6.32-1.53v-1.17h87.93v19h4.19V220.61h-2.09v-.84H615v14.8h.7v-14.8H702.2v19h5.58V220.61h-3.49v-.84H878.06v1.17l2.09.45v17.36h4.19v-16.3A84.86,84.86,0,0,1,895,226.19l.7.3c1.36.59,2.7,1.21,4,1.88v-.22a8.39,8.39,0,0,0-4-7.15l-.06,0h.06C897.27,221.3,898.84,221.66,900.39,222.08Z"/><path class="cls-4" d="M886.47,783H442a18,18,0,0,1-18-18V210.28a18,18,0,0,1,18-18H886.47a18,18,0,0,1,18,18v293h-12v-293a6,6,0,0,0-6-6H442a6,6,0,0,0-6,6V765a6,6,0,0,0,6,6H886.47a6,6,0,0,0,6-6V626.25h12V765A18,18,0,0,1,886.47,783Z"/><path class="cls-5" d="M887.83,200.37h4.89a83,83,0,0,1,83,83v97.35a41.52,41.52,0,0,1-41.52,41.52h-4.89a41.52,41.52,0,0,1-41.52-41.52V200.37A0,0,0,0,1,887.83,200.37Z"/><path class="cls-11" d="M445.38,200.37h87.93a0,0,0,0,1,0,0v180.4a41.52,41.52,0,0,1-41.52,41.52H486.9a41.52,41.52,0,0,1-41.52-41.52V200.37A0,0,0,0,1,445.38,200.37Z"/><path class="cls-12" d="M618.45,200.37h87.93a0,0,0,0,1,0,0v180.4a41.52,41.52,0,0,1-41.52,41.52H660a41.52,41.52,0,0,1-41.52-41.52V200.37a0,0,0,0,1,0,0Z"/><path class="cls-12" d="M798.5,200.37h87.93a0,0,0,0,1,0,0v180.4a41.52,41.52,0,0,1-41.52,41.52H840a41.52,41.52,0,0,1-41.52-41.52V200.37A0,0,0,0,1,798.5,200.37Z"/><path class="cls-5" d="M441.89,200.37h4.89a0,0,0,0,1,0,0v180.4a41.52,41.52,0,0,1-41.52,41.52h-4.89a41.52,41.52,0,0,1-41.52-41.52V283.42A83,83,0,0,1,441.89,200.37Z"/><path class="cls-13" d="M372.8,288.3v90A44.13,44.13,0,0,0,408,421.42a43.3,43.3,0,0,1-8.72.88,44.1,44.1,0,0,1-44-44v-90a87.93,87.93,0,0,1,87.93-87.93v1.73A88,88,0,0,0,372.8,288.3Z"/><path class="cls-13" d="M952,288.3v90a44.13,44.13,0,0,1-35.24,43.09,43.3,43.3,0,0,0,8.72.88,44.1,44.1,0,0,0,44-44v-90a87.93,87.93,0,0,0-87.93-87.93v1.73A88,88,0,0,1,952,288.3Z"/><path class="cls-14" d="M464.22,219.91v178a43.47,43.47,0,0,0,4.6,19.51,44,44,0,0,1-21.35-37.65v-178H535.4v18.14Z"/><path class="cls-15" d="M640.08,219.91v178a43.47,43.47,0,0,0,4.6,19.51,44,44,0,0,1-21.35-37.65v-178h87.93v18.14Z"/><path class="cls-15" d="M816.65,219.91v178a43.47,43.47,0,0,0,4.6,19.51,44,44,0,0,1-21.35-37.65v-178h87.93v18.14Z"/><path class="cls-5" d="M533.31,200.37h87.93a0,0,0,0,1,0,0v180.4a41.52,41.52,0,0,1-41.52,41.52h-4.89a41.52,41.52,0,0,1-41.52-41.52V200.37a0,0,0,0,1,0,0Z"/><path class="cls-13" d="M548,215.72v178a43.47,43.47,0,0,0,4.6,19.51,44,44,0,0,1-21.35-37.65v-178h87.93v18.14Z"/><path class="cls-5" d="M707.78,200.37h87.93a0,0,0,0,1,0,0v180.4a41.52,41.52,0,0,1-41.52,41.52H749.3a41.52,41.52,0,0,1-41.52-41.52V200.37a0,0,0,0,1,0,0Z"/><path class="cls-13" d="M722.43,215.72v178a43.47,43.47,0,0,0,4.6,19.51,44,44,0,0,1-21.35-37.65v-178h87.93v18.14Z"/><path class="cls-4" d="M402.46,426.2h-4.89A47.58,47.58,0,0,1,350,378.68V281.33a89.15,89.15,0,0,1,89-89H450v186.4A47.58,47.58,0,0,1,402.46,426.2ZM438,204.29a77.14,77.14,0,0,0-75.93,77v97.35a35.56,35.56,0,0,0,35.52,35.52h4.89A35.56,35.56,0,0,0,438,378.68Z"/><path class="cls-4" d="M490.39,426.2H485.5A47.58,47.58,0,0,1,438,378.68V192.28h99.93v186.4A47.58,47.58,0,0,1,490.39,426.2ZM450,204.28v174.4A35.56,35.56,0,0,0,485.5,414.2h4.89a35.56,35.56,0,0,0,35.52-35.52V204.28Z"/><path class="cls-4" d="M578.32,426.2h-4.89a47.58,47.58,0,0,1-47.52-47.52V192.28h99.93v186.4A47.58,47.58,0,0,1,578.32,426.2ZM537.91,204.28v174.4a35.56,35.56,0,0,0,35.52,35.52h4.89a35.56,35.56,0,0,0,35.52-35.52V204.28Z"/><path class="cls-4" d="M666.26,426.2h-4.89a47.58,47.58,0,0,1-47.52-47.52V192.28h99.93v186.4A47.58,47.58,0,0,1,666.26,426.2ZM625.85,204.28v174.4a35.56,35.56,0,0,0,35.52,35.52h4.89a35.56,35.56,0,0,0,35.52-35.52V204.28Z"/><path class="cls-4" d="M754.19,426.2H749.3a47.58,47.58,0,0,1-47.52-47.52V192.28h99.93v186.4A47.58,47.58,0,0,1,754.19,426.2ZM713.78,204.28v174.4A35.56,35.56,0,0,0,749.3,414.2h4.89a35.56,35.56,0,0,0,35.52-35.52V204.28Z"/><path class="cls-4" d="M842.12,426.2h-4.89a47.58,47.58,0,0,1-47.52-47.52V192.28h99.93v186.4A47.58,47.58,0,0,1,842.12,426.2ZM801.71,204.28v174.4a35.56,35.56,0,0,0,35.52,35.52h4.89a35.56,35.56,0,0,0,35.52-35.52V204.28Z"/><path class="cls-4" d="M930.05,426.2h-4.89a47.58,47.58,0,0,1-47.52-47.52V192.28h10.89a89.15,89.15,0,0,1,89,89v97.35A47.58,47.58,0,0,1,930.05,426.2ZM889.65,204.29V378.68a35.56,35.56,0,0,0,35.52,35.52h4.89a35.56,35.56,0,0,0,35.52-35.52V281.33A77.14,77.14,0,0,0,889.65,204.29Z"/><path class="cls-5" d="M509.12,242.24V282c0,3.86,6,3.87,6,0V242.24c0-3.86-6-3.87-6,0Z"/><path class="cls-5" d="M509.12,294.59v16.05c0,3.86,6,3.87,6,0V294.59c0-3.86-6-3.87-6,0Z"/><rect class="cls-16" x="409.09" y="764.96" width="514.28" height="37.69" rx="17.8" ry="17.8"/><path class="cls-17" d="M421.45,767.75H913.32a11.2,11.2,0,0,1,11.2,11.2v.66a0,0,0,0,1,0,0H410.24a0,0,0,0,1,0,0V779a11.2,11.2,0,0,1,11.2-11.2Z"/><path class="cls-4" d="M907,809.34H428.34a23.82,23.82,0,0,1-23.8-23.8v-2.09a23.82,23.82,0,0,1,23.8-23.8H907a23.82,23.82,0,0,1,23.8,23.8v2.09A23.82,23.82,0,0,1,907,809.34ZM428.34,771.65a11.81,11.81,0,0,0-11.8,11.8v2.09a11.81,11.81,0,0,0,11.8,11.8H907a11.81,11.81,0,0,0,11.8-11.8v-2.09a11.81,11.81,0,0,0-11.8-11.8Z"/><path class="cls-4" d="M859.64,711.64H471.48v-259H859.64Zm-376.16-12H847.64v-235H483.48Z"/><path class="cls-18" d="M416.42,15.36C254.18,15,153.12,117.1,152.77,277.87c-.11,49.68,26,127.2,71.14,220.84C244.29,538.22,269,582.11,295.26,626c32,54.13,67,108.29,102,158.05l17.48,23.44c5.86-7.31,11.72-14.61,17.59-23.36,35.2-51.07,70.38-103.61,102.64-157.61,26.42-43.8,49.89-87.58,70.43-127,47-93.44,73.45-170.84,73.56-220.52C679.26,122.62,574.27,15.7,416.42,15.36Zm-.91,423.83C319,439,240.29,359.91,240.5,263.43s79.3-175.21,175.76-175,175.21,79.3,175,175.76S512,439.4,415.5,439.19Z"/><path class="cls-5" d="M570.81,252.32c-.21,96.49-79.31,175.22-175.77,175-83.54-.18-153.81-59.52-171-138.11a174.31,174.31,0,0,1-2.62-30.58c.21-96.45,79.31-175.21,175.76-175,83.42.18,153.6,59.37,170.92,137.74a.4.4,0,0,0,0,.13A174.18,174.18,0,0,1,570.81,252.32Z"/><path class="cls-12" d="M397.7,5.7c-162.23-.35-263.3,101.74-263.64,262.51-.11,49.68,26,127.2,71.14,220.84,20.37,39.52,45.12,83.41,71.34,127.32,32,54.13,67,108.29,102,158.05L396,797.85c5.86-7.31,11.72-14.61,17.59-23.36,35.2-51.07,70.38-103.61,102.64-157.61,26.42-43.8,49.89-87.58,70.43-127,47-93.44,73.45-170.84,73.56-220.52C660.55,113,555.55,6,397.7,5.7Zm-.91,423.83c-96.46-.21-175.21-79.28-175-175.76s79.3-175.21,175.76-175,175.21,79.3,175,175.76S493.25,429.74,396.79,429.53Z"/><path class="cls-15" d="M576.54,513.19c-18,34.21-38.16,71-60.37,107.82-32.25,54-67.44,106.53-102.63,157.6-5.86,8.76-11.72,16-17.6,23.37l-17.48-23.44c-35-49.76-69.93-103.92-102-158-26.24-43.92-51-87.81-71.35-127.32C160,399.54,133.9,322,134,272.33c.14-66.34,17.44-122.67,49.11-166C170.58,139,163.93,176.2,163.84,217.21c-.11,49.68,26,127.21,71.14,220.84,20.38,39.51,45.12,83.4,71.35,127.32,32,54.12,67,108.28,102,158l17.48,23.44c5.87-7.32,11.73-14.61,17.6-23.37,35.19-51.06,70.38-103.61,102.63-157.6C556.67,548.23,566.83,530.56,576.54,513.19Z"/><path class="cls-4" d="M395.75,810.59l-23-30.85c-35-49.78-70.36-104.59-102.26-158.51-27.35-45.78-52.09-89.94-71.54-127.67l-.08-.17C151.08,394.23,126.91,318.9,127,269.5c.17-80.95,25.47-148.93,73.17-196.61S315.87,0,396.83,0h.84c39.66.08,76.73,6.76,110.19,19.83A241.6,241.6,0,0,1,648,161c12.79,33.39,19.23,70.27,19.14,109.64-.11,49.85-25.8,127.19-74.3,223.65l0,.09c-18.28,35.09-42.83,81.28-70.65,127.39C487.7,679.49,450.82,734,419.3,779.76c-5.9,8.81-11.87,16.26-17.65,23.47Zm-11.62-39,12,16.08c3.91-5,7.73-10,11.59-15.79,31.45-45.63,68.17-99.93,102.45-157.3,27.62-45.79,52-91.71,70.21-126.61,47.51-94.5,72.68-169.66,72.78-217.35.16-75-24-139.12-69.9-185.39C537.2,38.79,473,14.16,397.64,14h-.81C319.66,14,255.1,37.78,210.08,82.79S141.18,192.36,141,269.52c-.1,46.6,24.25,121.88,70.41,217.7,19.32,37.46,43.9,81.32,71.09,126.85C314.23,667.68,349.36,722.15,384.14,771.61Zm13-333.78h-.4A182.17,182.17,0,0,1,268.58,126.35,181.1,181.1,0,0,1,397.11,73.06h.4A182.18,182.18,0,0,1,525.66,384.54,181.09,181.09,0,0,1,397.13,437.83Zm-.37-14h.37a168.38,168.38,0,0,0,.36-336.77h-.37a168.38,168.38,0,0,0-.36,336.77Z"/><path class="cls-5" d="M552.08,94c34.91,32.41,59.08,74.3,68.73,121.05a259.15,259.15,0,0,1,5.06,52.23c0,7.72,12,7.73,12,0-.06-56.28-17.08-110.73-52.31-154.92a245.8,245.8,0,0,0-25-26.85c-5.65-5.25-14.16,3.22-8.49,8.49Z"/><path class="cls-5" d="M489.25,52l.7.29c-1.92-.77,1,.45,1.44.65,2.93,1.33,5.81,2.76,8.66,4.24a247,247,0,0,1,28.36,17.5c6.31,4.47,12.32-5.93,6.06-10.36-13.07-9.26-27.07-18-42-23.89-7.18-2.84-10.3,8.76-3.19,11.57Z"/><rect class="cls-4" x="635.37" y="458.44" width="12" height="248.96"/><rect class="cls-4" x="538.3" y="576.92" width="315.57" height="12"/><rect class="cls-19" x="533.54" y="586.43" width="320.32" height="12"/><rect class="cls-19" x="643.3" y="458.44" width="12" height="248.96"/><rect class="cls-4" x="892.46" y="590.42" width="12" height="22.5"/><rect class="cls-4" x="892.46" y="515.25" width="12" height="60.66"/></g></g></svg>