<svg xmlns="http://www.w3.org/2000/svg" xmlns:xlink="http://www.w3.org/1999/xlink" viewBox="0 0 1286.04 745.63"><defs><style>.cls-1{fill:url(#linear-gradient);}.cls-2{fill:#e7f6ff;}.cls-3{fill:none;}.cls-4{fill:#426572;}.cls-5{fill:#fff;}.cls-6{fill:#ebf0f9;}.cls-7{fill:#637f91;}.cls-10,.cls-8{opacity:0.5;}.cls-10,.cls-9{fill:#a7bcd5;}.cls-11{fill:#e2f2ff;}.cls-12{fill:#cadce8;}.cls-13{fill:#e8837e;}.cls-14{fill:#dde4ed;}.cls-15{fill:#d6dee9;}.cls-16{fill:#606060;opacity:0.2;}.cls-17{fill:#a8ef9e;}.cls-18{fill:#a7e59c;}</style><linearGradient id="linear-gradient" x1="1.32" y1="371.19" x2="1254.6" y2="371.19" gradientUnits="userSpaceOnUse"><stop offset="0" stop-color="#c5e9fa"/><stop offset="1" stop-color="#c4f4ea"/></linearGradient></defs><title>Asset 19</title><g id="Layer_2" data-name="Layer 2"><g id="Layer_1-2" data-name="Layer 1"><path class="cls-1" d="M1218.18,449.46c-45.45,117.68-130.9,220.78-249.59,266.09a431.14,431.14,0,0,1-47.21,14.95C836.7,752.09,744.06,744.58,666,705.24c-33.13-16.71-63.34-38.79-96.59-55.26S498.19,622.73,462,630.86c-31.16,7-57.45,27.06-83.92,44.93-62.4,42.13-137.43,75.47-211.32,61-34-6.65-67.48-25.07-83.27-55.86-34.9-68.07,30.92-149,17.59-224.28-8.53-48.18-47.49-84.26-71.71-126.78C-12.08,257.14-7.18,160.53,41.42,92.38S179.74-11.92,262,3.54C362.31,22.4,438.15,107.29,535.69,137.33c61,18.77,127.23,13.17,185.49-11.55,94.13-39.95,223.45-101.22,329.38-91.24,56.33,5.31,111.58,30.31,148.76,73,47,53.89,61.09,130.4,53.25,201.46A563.35,563.35,0,0,1,1218.18,449.46Z"/><path class="cls-2" d="M1248.42,542.54a26.3,26.3,0,0,1-6.2-.75,25.94,25.94,0,1,1,6.2.75Zm0-40.18a14.09,14.09,0,0,0-3.32,27.77h0a14.08,14.08,0,1,0,3.32-27.77Z"/><circle class="cls-2" cx="1213.76" cy="567.4" r="11.33" transform="translate(376.29 1613.25) rotate(-76.37)"/><path class="cls-2" d="M55.19,540.07a26.09,26.09,0,1,1,1.14,0Zm0-40.17H54.6a14.09,14.09,0,1,0,.61,0Z"/><circle class="cls-2" cx="36.08" cy="572.54" r="11.33" transform="translate(-24.62 2.08) rotate(-2.47)"/><path class="cls-2" d="M709.08,118.26A26.06,26.06,0,1,1,724,113.55,26.07,26.07,0,0,1,709.08,118.26ZM709,78.1a14.14,14.14,0,1,0,2.47.22A14.17,14.17,0,0,0,709,78.1Z"/><circle class="cls-2" cx="649.4" cy="107.59" r="11.33" transform="translate(55.91 392.32) rotate(-35.04)"/><rect class="cls-3" x="713.36" y="105.14" width="44.48" height="44.48"/><rect class="cls-3" x="713.36" y="105.14" width="44.48" height="44.48"/><path class="cls-4" d="M839.66,724.13"/><path class="cls-5" d="M1286,252.66a41.46,41.46,0,0,0-41.46-41.46c-.92,0-1.83,0-2.73.09.06-.9.09-1.81.09-2.73a41.46,41.46,0,1,0-81.56,10.54,41.46,41.46,0,1,0-32.61,74.19,41.46,41.46,0,0,0,68.84,13.94,41.46,41.46,0,0,0,62.66-15.8A41.47,41.47,0,0,0,1286,252.66Z"/><path class="cls-5" d="M191.45,153A41.46,41.46,0,0,0,150,111.5c-.92,0-1.83,0-2.73.09.06-.9.09-1.81.09-2.73A41.46,41.46,0,1,0,65.8,119.4a41.46,41.46,0,1,0-32.61,74.19A41.46,41.46,0,0,0,102,207.53a41.46,41.46,0,0,0,62.66-15.8A41.47,41.47,0,0,0,191.45,153Z"/><path class="cls-4" d="M954.18,742.93H357.68v-13h596.5a6.5,6.5,0,1,1,0,13Z"/><path class="cls-4" d="M331,742.93H294.53a6.5,6.5,0,0,1,0-13H331a6.5,6.5,0,1,1,0,13Z"/><path class="cls-4" d="M270.86,742.93H259.24a6.5,6.5,0,0,1,0-13h11.62a6.5,6.5,0,0,1,0,13Z"/><path class="cls-4" d="M1163.34,742.93H980v-13h183.34a6.5,6.5,0,0,1,0,13Z"/><path class="cls-4" d="M226,742.93H42.65v-13H226a6.5,6.5,0,1,1,0,13Z"/><path class="cls-6" d="M284.1,235.56H951.92A45.46,45.46,0,0,1,997.38,281V713.26a0,0,0,0,1,0,0H238.64a0,0,0,0,1,0,0V281A45.46,45.46,0,0,1,284.1,235.56Z"/><rect class="cls-7" x="268.02" y="268.71" width="702.99" height="401.6"/><path class="cls-5" d="M262.75,669.56H974a0,0,0,0,1,0,0v0A12.06,12.06,0,0,1,962,681.62H274.8a12.06,12.06,0,0,1-12.06-12.06v0a0,0,0,0,1,0,0Z"/><g class="cls-8"><polygon class="cls-9" points="478.09 267.21 372.98 672.57 320.05 672.57 425.16 267.21 478.09 267.21"/><polygon class="cls-9" points="613 267.21 507.9 672.57 396.9 672.57 502.01 267.21 613 267.21"/></g><path class="cls-4" d="M1003.38,719.26H232.64V261.62a32.1,32.1,0,0,1,32.06-32.06H971.32a32.1,32.1,0,0,1,32.06,32.06Zm-758.74-12H991.38V261.62a20.08,20.08,0,0,0-20.06-20.06H264.7a20.08,20.08,0,0,0-20.06,20.06Z"/><path class="cls-6" d="M142.95,698.95h970.47a0,0,0,0,1,0,0v3.19a39,39,0,0,1-39,39H181.95a39,39,0,0,1-39-39v-3.19A0,0,0,0,1,142.95,698.95Z"/><path class="cls-10" d="M1108.45,719.29A29.39,29.39,0,0,1,1081,738.13H169.32a29.39,29.39,0,0,1-27.43-18.84Z"/><path class="cls-4" d="M1069.89,745.63H177.43a45.05,45.05,0,0,1-45-45v-9.19h982.47v9.19A45.05,45.05,0,0,1,1069.89,745.63ZM144.54,703.44a33,33,0,0,0,32.88,30.19h892.47a33,33,0,0,0,32.88-30.19Z"/><path class="cls-4" d="M975.5,674.05h-715V262.71h715Zm-703-12h691V274.71h-691Z"/><path class="cls-4" d="M755.5,570.72"/><path class="cls-5" d="M863.55,139.79V668.05H384.34V139.79a9.07,9.07,0,0,1,9-9H854.51a8.88,8.88,0,0,1,1.62.15A9.07,9.07,0,0,1,863.55,139.79Z"/><polygon class="cls-11" points="391.88 174.45 865.06 174.45 865.06 142.67 856.01 130.75 441.61 130.75 400.92 130.75 385.85 142.67 385.85 174.45 391.88 174.45"/><path class="cls-4" d="M871.06,674.05H379.85V139.79a15.06,15.06,0,0,1,15-15H856a15.06,15.06,0,0,1,15,15Zm-479.21-12H859.06V139.79a3.08,3.08,0,0,0-3-3H394.89a3.08,3.08,0,0,0-3,3Z"/><rect class="cls-12" x="408.01" y="149.27" width="433.6" height="12.06" rx="6.03" ry="6.03"/><rect class="cls-13" x="443.58" y="231.04" width="98.53" height="112.27"/><rect class="cls-13" x="551.41" y="231.04" width="233.63" height="112.27"/><rect class="cls-14" x="674.73" y="355.74" width="110.31" height="112.27"/><rect class="cls-14" x="444.82" y="355.74" width="220.61" height="112.27"/><rect class="cls-14" x="444.82" y="480.44" width="340.84" height="112.27"/><rect class="cls-14" x="701.27" y="607.8" width="87.4" height="12"/><path class="cls-5" d="M311.22,639.44l-143.06,0a14,14,0,0,1-6.75-1.68c-3-1.64-4.92-4.33-4.92-7.36l.08-196.66a7.24,7.24,0,0,1,1-3.66c1.82-3.16,5.93-5.38,10.67-5.38l143.06,0c5,0,9.21,2.42,10.89,5.8v0a7.18,7.18,0,0,1,.78,3.23L322.9,630.4c0,4.54-4.39,8.33-10.06,8.95A14.3,14.3,0,0,1,311.22,639.44Z"/><path class="cls-15" d="M315.11,637.93,172,637.9a14,14,0,0,1-6.75-1.68c-3-1.64-4.92-4.33-4.92-7.36l.08-196.66a7.24,7.24,0,0,1,1-3.66c1.82-3.16,5.93-5.38,10.67-5.38h1.95L174,616.8c0,3,1.94,5.72,4.92,7.36a14,14,0,0,0,6.75,1.68l141.12,0v3c0,4.54-4.39,8.33-10.06,8.95A14.31,14.31,0,0,1,315.11,637.93Z"/><path class="cls-4" d="M313.16,643.93l-143.07,0a20,20,0,0,1-9.66-2.43c-5-2.77-8-7.49-8-12.61l.08-196.66a13.32,13.32,0,0,1,1.83-6.67c3-5.15,9-8.36,15.85-8.36h0l143.06,0c7,0,13.25,3.45,16.09,8.81l.8,1.23v.56a13,13,0,0,1,.78,4.45l-.08,196.66c0,7.54-6.63,14-15.41,14.91A20.22,20.22,0,0,1,313.16,643.93Zm-143-214.78c-2.69,0-4.79,1.19-5.46,2.37a1.28,1.28,0,0,0-.21.67l-.08,196.66c0,.66.73,1.5,1.82,2.11a8.1,8.1,0,0,0,3.86.94l143.06,0a8.07,8.07,0,0,0,.94-.05c3-.32,4.74-2,4.74-3l.08-196.66a1.05,1.05,0,0,0-.06-.35l-.56-.86a7.13,7.13,0,0,0-5.06-1.83l-143.06,0Z"/><rect class="cls-4" x="199.64" y="509.8" width="97.02" height="12"/><rect class="cls-4" x="199.64" y="484.76" width="97.02" height="12"/><rect class="cls-4" x="199.64" y="538.17" width="97.02" height="12"/><path class="cls-16" d="M1072,284a111.31,111.31,0,1,0-199.1-99.42,111.33,111.33,0,0,0,89.46,163.31q-4.82,1.14-9.79,1.85a111.31,111.31,0,0,0,95.87-32.76A111.57,111.57,0,0,0,1072,284Z"/><circle class="cls-17" cx="958.76" cy="210.6" r="111.3"/><path class="cls-18" d="M1064.75,218.55A111.31,111.31,0,0,1,937.56,328.7a111.3,111.3,0,0,0,0-220.31,111.31,111.31,0,0,1,127.2,110.16Z"/><path class="cls-4" d="M956.11,333.19a117.3,117.3,0,1,1,117.3-117.3A117.43,117.43,0,0,1,956.11,333.19Zm0-222.59a105.3,105.3,0,1,0,105.3,105.3A105.41,105.41,0,0,0,956.11,110.6Z"/><path class="cls-5" d="M1012.33,170.38a10.64,10.64,0,0,0-14.27,3.74l-19.27,31.5L948,255.9l-.86,1.41-35.55-28.44-6.48-5.18c-4.25-3.4-10.66-4.47-14.75,0-3.48,3.79-4.55,11.11,0,14.75L936.07,275l6.48,5.18c2.69,2.16,5.25,3.34,8.76,2.87a10.3,10.3,0,0,0,7.62-5l19.27-31.5L1009,196.28l7.11-11.62C1018.92,180,1017.24,173,1012.33,170.38Z"/></g></g></svg>