<?xml version="1.0" encoding="utf-8"?>
<!-- Generator: Adobe Illustrator 27.6.1, SVG Export Plug-In . SVG Version: 6.00 Build 0)  -->
<svg version="1.1" id="Outline" xmlns="http://www.w3.org/2000/svg" xmlns:xlink="http://www.w3.org/1999/xlink" x="0px" y="0px"
	 viewBox="0 0 48 48" enable-background="new 0 0 48 48" xml:space="preserve">
<g>
	<path d="M11,23h4c0.55225,0,1-0.44775,1-1s-0.44775-1-1-1h-4c-0.55225,0-1,0.44775-1,1S10.44775,23,11,23z"/>
	<circle cx="7" cy="22" r="1"/>
	<circle cx="42" cy="29" r="1"/>
	<circle cx="7" cy="34" r="1"/>
	<path d="M12,31c0.55225,0,1-0.44727,1-1s-0.44775-1-1-1H6c-0.55225,0-1,0.44727-1,1s0.44775,1,1,1H12z"/>
	<path d="M41.38477,31.94629c-0.50439-0.22363-1.09521,0.00391-1.31934,0.50879C38.30469,36.43066,34.354,39,30,39
		c-6.06543,0-11-4.93457-11-11s4.93457-11,11-11c5.03271,0,9.4126,3.39893,10.65088,8.26562
		c0.13623,0.53516,0.67969,0.85938,1.21582,0.72266c0.53516-0.13574,0.85889-0.67969,0.72266-1.21533
		c-0.50415-1.98169-1.45654-3.75018-2.72131-5.22693l2.83899-2.83899c0.39062-0.39062,0.39062-1.02344,0-1.41406
		s-1.02344-0.39062-1.41406,0l-2.83875,2.83875C36.40167,16.37384,33.81195,15.2569,31,15.04205V13h3c0.55225,0,1-0.44775,1-1V8
		c0-0.55225-0.44775-1-1-1h-8c-0.55225,0-1,0.44775-1,1v4c0,0.55225,0.44775,1,1,1h3v2.05066
		C23.31293,15.48669,18.64813,19.59058,17.36334,25H8c-0.55225,0-1,0.44727-1,1s0.44775,1,1,1h9.05066
		C17.02527,27.33112,17,27.66248,17,28c0,1.77124,0.35858,3.45972,1.00293,5H11c-0.55225,0-1,0.44727-1,1s0.44775,1,1,1h8.06305
		C21.37683,38.60229,25.40967,41,30,41c5.14453,0,9.81348-3.03613,11.89453-7.73438
		C42.11816,32.76074,41.89014,32.16992,41.38477,31.94629z M27,9h6v2h-6V9z"/>
	<path d="M30,25c-1.6543,0-3,1.3457-3,3s1.3457,3,3,3c0.46173,0,0.89423-0.11346,1.28534-0.3006
		c0,0,2.00702,2.00702,2.00763,2.00763c0.37013,0.37013,1.01859,0.39547,1.41406,0c0.39062-0.39062,0.39062-1.02344,0-1.41406
		l-2.00763-2.00763C32.88654,28.89423,33,28.46173,33,28C33,26.3457,31.6543,25,30,25z M29,28c0-0.55176,0.44873-1,1-1
		s1,0.44824,1,1s-0.44873,1-1,1S29,28.55176,29,28z"/>
</g>
</svg>
