<?xml version="1.0" encoding="utf-8"?>
<!-- Generator: Adobe Illustrator 27.7.0, SVG Export Plug-In . SVG Version: 6.00 Build 0)  -->
<svg version="1.1" id="Outline" xmlns="http://www.w3.org/2000/svg" xmlns:xlink="http://www.w3.org/1999/xlink" x="0px" y="0px"
	 viewBox="0 0 48 48" enable-background="new 0 0 48 48" xml:space="preserve">
<g>
	<path d="M37.29297,32.29297L34,35.58594l-1.29297-1.29297c-0.39062-0.39062-1.02344-0.39062-1.41406,0s-0.39062,1.02344,0,1.41406
		c0,0,1.99321,1.99321,1.99998,1.99998c0.36627,0.36627,1.02404,0.39006,1.41408,0.00002l4-4
		c0.39062-0.39062,0.39062-1.02344,0-1.41406S37.68359,31.90234,37.29297,32.29297z"/>
	<path d="M36,27.06946V7c0-1.10303-0.89697-2-2-2H14c-0.26514,0-0.51953,0.10547-0.70703,0.29297l-8,8
		C5.10547,13.48047,5,13.73486,5,14v27c0,1.10303,0.89697,2,2,2h28c4.41113,0,8-3.58887,8-8
		C43,30.92822,39.93994,27.56409,36,27.06946z M13,8.41406V13H8.41406L13,8.41406z M7,41V15h7c0.55225,0,1-0.44775,1-1V7h19
		v20.06946C30.06006,27.56409,27,30.92822,27,35c0,2.39008,1.05914,4.53278,2.72626,6H7z M35,41c-3.30859,0-6-2.69141-6-6
		s2.69141-6,6-6s6,2.69141,6,6S38.30859,41,35,41z"/>
	<path d="M18,23h13c0.55225,0,1-0.44775,1-1V10c0-0.55225-0.44775-1-1-1H18c-0.55225,0-1,0.44775-1,1v12
		C17,22.55225,17.44775,23,18,23z M19,11h11v10H19V11z"/>
	<circle cx="10" cy="26" r="1"/>
	<path d="M24,25H14c-0.55225,0-1,0.44775-1,1s0.44775,1,1,1h10c0.55225,0,1-0.44775,1-1S24.55225,25,24,25z"/>
	<circle cx="10" cy="30" r="1"/>
	<path d="M24,29H14c-0.55225,0-1,0.44775-1,1s0.44775,1,1,1h10c0.55225,0,1-0.44775,1-1S24.55225,29,24,29z"/>
	<circle cx="10" cy="34" r="1"/>
	<path d="M24,33H14c-0.55225,0-1,0.44775-1,1s0.44775,1,1,1h10c0.55225,0,1-0.44775,1-1S24.55225,33,24,33z"/>
	<circle cx="10" cy="38" r="1"/>
	<path d="M24,37H14c-0.55225,0-1,0.44775-1,1s0.44775,1,1,1h10c0.55225,0,1-0.44775,1-1S24.55225,37,24,37z"/>
</g>
</svg>
