<?xml version="1.0" encoding="utf-8"?>
<!-- Generator: Adobe Illustrator 27.9.0, SVG Export Plug-In . SVG Version: 6.00 Build 0)  -->
<svg version="1.1" id="Outline" xmlns="http://www.w3.org/2000/svg" xmlns:xlink="http://www.w3.org/1999/xlink" x="0px" y="0px"
	 viewBox="0 0 64 64" enable-background="new 0 0 64 64" xml:space="preserve">
<g>
	<path d="M54,10H10c-1.65002,0-3,1.34998-3,3v28c0,1.64996,1.34998,3,3,3h14.82001l-0.66998,4H23c-1.65002,0-3,1.34998-3,3v2
		c0,0.54999,0.45001,1,1,1h22c0.54999,0,1-0.45001,1-1v-2c0-1.65002-1.34998-3-3-3h-1.15002l-0.66998-4H54c1.65002,0,3-1.35004,3-3
		V13C57,11.34998,55.65002,10,54,10z M41,50c0.54999,0,1,0.45001,1,1v1H22v-1c0-0.54999,0.45001-1,1-1H41z M26.17999,48l0.66998-4
		h10.30005l0.66998,4H26.17999z M55,41c0,0.54999-0.45001,1-1,1H10c-0.54999,0-1-0.45001-1-1v-3h22v1c0,0.54999,0.45001,1,1,1
		s1-0.45001,1-1v-1h22V41z M55,36H9V13c0-0.54999,0.45001-1,1-1h44c0.54999,0,1,0.45001,1,1V36z"/>
	<path d="M17.88477,32.96582c0,0,2.89795,0.77637,2.89806,0.7764c0.52698,0.14204,1.08367-0.1811,1.2245-0.70706
		c0.14307-0.53369-0.17334-1.08203-0.70703-1.22461l-0.56183-0.15051l3.46936-2.00421L31.5,33.86609
		c0.30939,0.17865,0.69061,0.17865,1,0l7.29218-4.21027l3.46936,2.00421l-0.56183,0.15051
		c-0.53366,0.14257-0.85007,0.69086-0.70705,1.22453c0.14054,0.52444,0.70164,0.84814,1.22463,0.70711l2.89795-0.77637
		c0.53369-0.14258,0.8501-0.69092,0.70703-1.22461l-0.77637-2.89795c-0.14307-0.53369-0.68848-0.85205-1.22461-0.70703
		c-0.53369,0.14258-0.8501,0.69092-0.70703,1.22461l0.15295,0.57104l-3.47278-2.00623v-8.42548
		c0-0.35724-0.19061-0.68738-0.5-0.86603L32.5,14.13391c-0.30939-0.17865-0.69061-0.17865-1,0l-7.79443,4.50024
		c-0.30939,0.17865-0.5,0.50879-0.5,0.86603v8.42548l-3.47278,2.00623l0.15295-0.57104
		c0.14307-0.53369-0.17334-1.08203-0.70703-1.22461c-0.53613-0.14258-1.08154,0.17383-1.22461,0.70703l-0.77637,2.89795
		C17.03467,32.2749,17.35107,32.82324,17.88477,32.96582z M25.20557,21.23224L31,24.57751v6.69043l-5.79443-3.34509V21.23224z
		 M33,31.26794v-6.69043l5.79443-3.34528v6.69061L33,31.26794z M32,16.15479l5.79437,3.34503L32,22.84521l-5.79437-3.3454
		L32,16.15479z"/>
</g>
</svg>
