<?xml version="1.0" encoding="UTF-8"?>
<svg width="219px" height="40px" viewBox="0 0 219 40" version="1.1" xmlns="http://www.w3.org/2000/svg" xmlns:xlink="http://www.w3.org/1999/xlink">
    <title>Group 2</title>
    <defs>
        <ellipse id="path-1" cx="19.9817518" cy="20" rx="19.9817518" ry="20"></ellipse>
        <polygon id="path-3" points="0 0 298.927007 0 298.927007 55.2 0 53.2541052"></polygon>
    </defs>
    <g id="Home" stroke="none" stroke-width="1" fill="none" fill-rule="evenodd">
        <g id="Home-4" transform="translate(-118.000000, -11.000000)">
            <g id="Group-2" transform="translate(118.000000, 11.000000)">
                <g id="Group">
                    <mask id="mask-2" fill="white">
                        <use xlink:href="#path-1"></use>
                    </mask>
                    <use id="Oval" fill="#FFFFFF" xlink:href="#path-1"></use>
                    <g id="Group-3" mask="url(#mask-2)">
                        <g transform="translate(-235.784672, 17.600000)">
                            <mask id="mask-4" fill="white">
                                <use xlink:href="#path-3"></use>
                            </mask>
                            <g id="Clip-2" stroke="none" fill="none"></g>
                            <path d="M282.791216,3.35101033 C280.129917,3.35101033 275.298993,2.28982147 272.068957,0.976399268 C268.837381,-0.325466423 263.554344,-0.322954138 260.32585,0.985443491 C257.095814,2.30087552 252.26489,3.36357175 249.59794,3.36357175 C246.906843,3.36357175 242.089276,2.30087552 238.858727,0.985443491 C235.630233,-0.322954138 230.342059,-0.322954138 227.110996,0.980418923 C223.890722,2.29585095 219.059797,3.35854718 216.385655,3.35854718 C213.707402,3.35854718 208.876991,2.29233375 205.646442,0.976399268 C202.417948,-0.325466423 197.135425,-0.325466423 193.915151,0.976399268 C190.681005,2.29233375 185.847512,3.35854718 183.169259,3.35854718 C180.497686,3.35854718 175.664706,2.29233375 172.44957,0.976399268 C169.221589,-0.325466423 163.93547,-0.325466423 160.705434,0.976399268 C157.476427,2.29233375 152.640364,3.35854718 149.963653,3.35854718 C147.301841,3.35854718 142.468861,2.29585095 139.239853,0.982931207 C135.992864,-0.320944311 130.723185,-0.320944311 127.493149,0.982931207 C124.261573,2.29585095 119.430648,3.35854718 116.759074,3.35854718 C114.078253,3.35854718 109.259145,2.29585095 106.017293,0.982931207 C102.799588,-0.320944311 97.5134683,-0.320944311 94.2860017,0.982931207 C91.0518562,2.29585095 86.2209317,3.35854718 83.5596332,3.35854718 C80.8685365,3.35854718 76.0350431,2.29233375 72.8204206,0.976399268 C69.5924403,-0.325466423 64.3058069,-0.325466423 61.0757716,0.976399268 C57.8585803,2.29233375 53.0250869,3.35854718 50.3370727,3.35854718 C47.6701229,3.35854718 42.8391983,2.29233375 39.6081354,0.976399268 C36.3904304,-0.325466423 31.0986594,-0.325466423 27.8763305,0.976399268 C24.6319097,2.29233375 19.8009851,3.35854718 17.1345491,3.36105946 C14.4604065,3.36105946 9.62691314,2.29836323 6.40972187,0.980418923 C4.66292367,0.274969509 2.31348009,-0.0214800302 0,0.036804964 L0,1.80093095 C2.31348009,1.74616316 4.66292367,2.04512498 6.40972187,2.74906702 C9.62691314,4.06600642 14.4604065,5.13021002 17.1345491,5.13021002 C19.8009851,5.12870265 24.6319097,4.06248922 27.8763305,2.74655474 C31.0986594,1.44318168 36.3904304,1.44318168 39.6081354,2.74655474 C42.8391983,4.06248922 47.6701229,5.12719528 50.3370727,5.12719528 C53.0250869,5.12719528 57.8585803,4.06248922 61.0757716,2.74655474 C64.3058069,1.44318168 69.5924403,1.44318168 72.8204206,2.74655474 C76.0350431,4.06248922 80.8685365,5.12719528 83.5596332,5.12719528 C86.2209317,5.12719528 91.0518562,4.06449905 94.2860017,2.75308668 C97.5134683,1.44820625 102.799588,1.44820625 106.017293,2.75308668 C109.259145,4.06449905 114.078253,5.12719528 116.759074,5.12719528 C119.430648,5.12719528 124.261573,4.06449905 127.493149,2.75308668 C130.723185,1.44820625 135.992864,1.44820625 139.239853,2.75308668 C142.468861,4.06449905 147.301841,5.12719528 149.963653,5.12719528 C152.640364,5.12719528 157.476427,4.06248922 160.705434,2.74655474 C163.93547,1.44318168 169.221589,1.44318168 172.44957,2.74655474 C175.664706,4.06248922 149.661605,28.0089956 152.333179,28.0089956 C155.011432,28.0089956 154.781208,34.6999568 158.015354,33.3840223 C161.235628,32.0806493 176.001739,32.0806493 179.230233,33.3840223 C182.460783,34.6999568 191.236898,41.6474757 193.915151,41.6474757 C196.589293,41.6474757 209.194817,34.6984495 212.415091,33.3840223 C215.646154,32.0806493 216.510106,36.5822448 219.7386,37.8891351 C222.969149,39.2060745 228.766431,28.9989572 231.457528,28.9989572 C234.124478,28.9989572 246.367904,26.9855755 249.59794,25.6686361 C252.826434,24.3617458 257.094273,25.8041062 260.32585,27.104967 C263.555885,28.4178867 253.661301,51.3372722 256.3226,51.3372722 C258.996742,51.3372722 279.562208,52.6501919 282.791216,51.3372722 C284.288838,50.7323142 296.968538,51.3724442 298.927007,51.3372722 L298.927007,0.0232386292 C296.968538,0.0579081516 295.028051,0.371943681 293.530428,0.976399268 C290.301421,2.28982147 285.465358,3.35101033 282.791216,3.35101033 Z" id="Fill-1" stroke="none" fill="#62CCF5" fill-rule="evenodd" mask="url(#mask-4)"></path>
                        </g>
                    </g>
                    <polygon id="W" fill="#FFFFFF" fill-rule="nonzero" mask="url(#mask-2)" points="17.8578195 34.47288 20.1587262 27.797072 22.4596329 34.47288 24.4110348 34.47288 27.8915203 24.1968 25.5469255 24.1968 23.4353339 31.105824 21.1489899 24.167648 19.2267134 24.167648 16.9403693 31.105824 14.8287777 24.1968 12.4259321 24.1968 15.9064176 34.47288"></polygon>
                    <path d="M17.0225912,15.2 L17.954562,12.9116712 L22.264927,12.9116712 L23.1968978,15.2 L25.5413868,15.2 L21.1727737,4.92438361 L19.1049635,4.92438361 L14.7363504,15.2 L17.0225912,15.2 Z M21.4640146,10.9294247 L18.7554744,10.9294247 L20.1097445,7.62082195 L21.4640146,10.9294247 Z" id="A" fill="#03487C" fill-rule="nonzero" mask="url(#mask-2)"></path>
                </g>
                <path d="M50.7580048,28.5084548 L51.3764332,24.3102041 L54.085739,24.3102041 L54.6158205,28.5084548 L56.7950447,28.5084548 L53.9384941,9.09154519 L51.7298209,9.09154519 L48.7554745,28.5084548 L50.7580048,28.5084548 Z M53.8206982,22.3568513 L51.641474,22.3568513 L52.7899841,13.6979592 L53.8206982,22.3568513 Z M60.2994727,28.5084548 L60.2994727,9.09154519 L58.1496975,9.09154519 L58.1496975,28.5084548 L60.2994727,28.5084548 Z M70.2237774,28.6833819 L70.2237774,27.2548105 C69.8114917,27.2548105 69.6936958,27.0215743 69.6936958,26.496793 L69.6936958,21.8029155 C69.6936958,20.5492711 69.1930632,19.4413994 67.9856552,19.0623907 C69.2225122,18.6833819 69.6347979,17.7212828 69.6347979,16.2927114 L69.6347979,12.5900875 C69.6347979,9.99533528 68.1917981,9.09154519 66.3659616,9.09154519 L62.4786969,9.09154519 L62.4786969,28.5084548 L64.6284721,28.5084548 L64.6284721,19.9661808 L66.2481657,19.9661808 C67.131635,19.9661808 67.6028186,20.5784257 67.6028186,21.5696793 L67.6028186,26.5842566 C67.6028186,28.2169096 68.1623491,28.6833819 69.5758999,28.6833819 L70.2237774,28.6833819 Z M66.1598188,18.1294461 L64.6284721,18.1294461 L64.6284721,11.0740525 L66.3365126,11.0740525 C67.131635,11.0740525 67.5144716,11.5405248 67.5144716,12.4443149 L67.5144716,16.5259475 C67.5144716,17.5463557 66.9843901,18.1294461 66.1598188,18.1294461 Z M83.1518775,28.8 C84.5065303,28.8 85.2133057,27.8670554 85.2133057,26.0886297 L85.2133057,24.3102041 L83.8586529,24.3102041 L83.8586529,26.0303207 C83.8586529,26.6717201 83.6230611,26.9341108 83.1518775,26.9341108 C82.6512449,26.9341108 82.2389592,26.5842566 81.9739185,26.0303207 C83.1813264,24.1061224 84.0353467,20.7533528 84.0942447,18.6542274 L82.4156531,18.6542274 C82.4156531,20.4034985 81.8266736,22.5317784 81.0021023,24.251895 C80.5309187,23.1440233 79.9419392,20.3451895 79.6474494,18.6542274 C81.35549,16.9341108 82.5923469,15.0099125 82.5923469,12.7941691 C82.5923469,10.5784257 81.7972246,8.8 79.8535922,8.8 C77.8805109,8.8 76.6731029,10.6658892 76.6731029,13.2023324 C76.6731029,14.8641399 77.0853886,16.6425656 77.5271232,18.0419825 C75.7012867,19.8495627 74.6116747,21.5405248 74.6116747,24.2227405 C74.6116747,26.8758017 76.0252255,28.8 78.1455517,28.8 C79.2057148,28.8 80.177531,28.3626822 80.9137554,27.4880466 C81.5027349,28.3335277 82.2389592,28.8 83.1518775,28.8 Z M79.0879189,16.8758017 C78.7934291,15.4472303 78.5578373,14.1061224 78.5578373,13.1731778 C78.5578373,11.5113703 78.999572,10.8408163 79.7652453,10.8408163 C80.5014697,10.8408163 80.7665105,11.5405248 80.7665105,12.9399417 C80.7665105,14.0478134 80.2364289,15.651312 79.0879189,16.8758017 Z M78.5872863,26.9049563 C77.4093273,26.9049563 76.614205,25.9428571 76.614205,23.8728863 C76.614205,22.4734694 77.2031845,21.103207 78.0277558,20.1119534 C78.4400414,22.2110787 79.1762658,24.922449 79.8535922,26.2052478 C79.5591025,26.6717201 79.1762658,26.9049563 78.5872863,26.9049563 Z M93.2823249,28.5084548 L95.0198145,15.9137026 L96.5806102,28.5084548 L98.5536915,28.5084548 L101.145201,9.09154519 L99.17212,9.09154519 L97.7291202,23.0274052 L96.0799776,9.09154519 L94.342488,9.09154519 L92.4283047,23.0274052 L91.1619987,9.09154519 L89.0711215,9.09154519 L91.2797946,28.5084548 L93.2823249,28.5084548 Z M103.265528,28.5084548 L103.883956,24.3102041 L106.593262,24.3102041 L107.123343,28.5084548 L109.302567,28.5084548 L106.446017,9.09154519 L104.237344,9.09154519 L101.262997,28.5084548 L103.265528,28.5084548 Z M106.328221,22.3568513 L104.148997,22.3568513 L105.297507,13.6979592 L106.328221,22.3568513 Z M113.984954,28.5084548 L113.984954,11.0740525 L116.517566,11.0740525 L116.517566,9.09154519 L109.273118,9.09154519 L109.273118,11.0740525 L111.894077,11.0740525 L111.894077,28.5084548 L113.984954,28.5084548 Z M124.1743,28.5084548 L124.1743,26.555102 L120.051443,26.555102 L120.051443,19.4122449 L123.02579,19.4122449 L123.02579,17.5172012 L120.051443,17.5172012 L120.051443,11.044898 L124.1743,11.044898 L124.1743,9.09154519 L117.931117,9.09154519 L117.931117,28.5084548 L124.1743,28.5084548 Z M133.627421,28.6833819 L133.627421,27.2548105 C133.215135,27.2548105 133.097339,27.0215743 133.097339,26.496793 L133.097339,21.8029155 C133.097339,20.5492711 132.596707,19.4413994 131.389299,19.0623907 C132.626156,18.6833819 133.038441,17.7212828 133.038441,16.2927114 L133.038441,12.5900875 C133.038441,9.99533528 131.595442,9.09154519 129.769605,9.09154519 L125.88234,9.09154519 L125.88234,28.5084548 L128.032116,28.5084548 L128.032116,19.9661808 L129.651809,19.9661808 C130.535279,19.9661808 131.006462,20.5784257 131.006462,21.5696793 L131.006462,26.5842566 C131.006462,28.2169096 131.565993,28.6833819 132.979543,28.6833819 L133.627421,28.6833819 Z M129.563462,18.1294461 L128.032116,18.1294461 L128.032116,11.0740525 L129.740156,11.0740525 C130.535279,11.0740525 130.918115,11.5405248 130.918115,12.4443149 L130.918115,16.5259475 C130.918115,17.5463557 130.388034,18.1294461 129.563462,18.1294461 Z M145.554256,28.8 C146.113786,28.8 146.408276,28.7125364 146.702766,28.5084548 L146.702766,27.225656 C146.084337,27.225656 145.642603,27.0798834 145.407011,26.8466472 C145.701501,26.3801749 145.878195,25.6804665 145.878195,24.9516035 L145.878195,12.7941691 C145.878195,10.5201166 144.405746,8.8 142.108726,8.8 C139.811706,8.8 138.339257,10.5201166 138.339257,12.7941691 L138.339257,24.8058309 C138.339257,27.0798834 139.811706,28.8 142.108726,28.8 C142.874399,28.8 143.581175,28.6250729 144.170154,28.2460641 C144.494093,28.5959184 144.994725,28.8 145.554256,28.8 Z M142.108726,26.7883382 C141.019114,26.7883382 140.459583,26.0303207 140.459583,25.1265306 L140.459583,12.4734694 C140.459583,11.5988338 141.019114,10.8116618 142.108726,10.8116618 C143.198338,10.8116618 143.757868,11.5988338 143.757868,12.4734694 L143.757868,24.7183673 L142.403216,25.9137026 L143.080542,26.5259475 C142.815501,26.7008746 142.491562,26.7883382 142.108726,26.7883382 Z M151.532398,28.8 C153.652724,28.8 155.242969,27.283965 155.242969,24.8932945 L155.242969,9.09154519 L153.18154,9.09154519 L153.18154,25.0099125 C153.18154,26.2052478 152.651459,26.8174927 151.561847,26.8174927 C150.472235,26.8174927 149.942153,26.2052478 149.942153,25.0099125 L149.942153,9.09154519 L147.821827,9.09154519 L147.821827,24.8932945 C147.821827,27.283965 149.382623,28.8 151.532398,28.8 Z M158.452907,28.5084548 L159.071335,24.3102041 L161.780641,24.3102041 L162.310723,28.5084548 L164.489947,28.5084548 L161.633396,9.09154519 L159.424723,9.09154519 L156.450377,28.5084548 L158.452907,28.5084548 Z M161.5156,22.3568513 L159.336376,22.3568513 L160.484886,13.6979592 L161.5156,22.3568513 Z M171.940538,28.5084548 L171.940538,26.496793 L167.964926,26.496793 L167.964926,9.09154519 L165.8446,9.09154519 L165.8446,28.5084548 L171.940538,28.5084548 Z M175.592211,28.5084548 L175.592211,9.09154519 L173.442435,9.09154519 L173.442435,28.5084548 L175.592211,28.5084548 Z M181.747046,28.5084548 L181.747046,11.0740525 L184.279658,11.0740525 L184.279658,9.09154519 L177.03521,9.09154519 L177.03521,11.0740525 L179.656169,11.0740525 L179.656169,28.5084548 L181.747046,28.5084548 Z M189.904413,28.5084548 L189.904413,20.8408163 L193.084902,9.09154519 L191.052923,9.09154519 L188.962045,18.1294461 L186.871168,9.09154519 L184.750842,9.09154519 L187.784086,20.8408163 L187.784086,28.5084548 L189.904413,28.5084548 Z M199.74037,28.5084548 L199.74037,9.09154519 L197.590595,9.09154519 L197.590595,28.5084548 L199.74037,28.5084548 Z M203.892676,28.5084548 L203.892676,15.5638484 L204.835043,18.6833819 L208.162777,28.5084548 L209.723573,28.5084548 L209.723573,9.09154519 L207.721043,9.09154519 L207.721043,22.2110787 L206.837573,19.0623907 L203.804329,9.09154519 L201.890145,9.09154519 L201.890145,28.5084548 L203.892676,28.5084548 Z M215.407225,28.8 C217.704245,28.8 219,27.1381924 219,24.8932945 L219,21.6862974 L217.144715,21.6862974 L217.144715,25.0973761 C217.144715,26.0886297 216.555735,26.7883382 215.495572,26.7883382 C214.376511,26.7883382 213.787531,26.0886297 213.787531,25.1265306 L213.787531,12.4734694 C213.787531,11.5405248 214.376511,10.8116618 215.495572,10.8116618 C216.555735,10.8116618 217.144715,11.5405248 217.144715,12.5026239 L217.144715,15.8845481 L219,15.8845481 L219,12.7067055 C219,10.4618076 217.704245,8.8 215.407225,8.8 C213.110205,8.8 211.667205,10.5492711 211.667205,12.7941691 L211.667205,24.8058309 C211.667205,27.0798834 213.110205,28.8 215.407225,28.8 Z" id="AIR&amp;WATERQUALITYINC" fill="#B3D9E8" fill-rule="nonzero"></path>
            </g>
        </g>
    </g>
</svg>