<?xml version="1.0" encoding="UTF-8"?><svg id="Layer_1" xmlns="http://www.w3.org/2000/svg" viewBox="0 0 420.686 156.132"><defs><style>.cls-1{fill:#231f20;}.cls-2{fill:#94d2bc;}</style></defs><path class="cls-1" d="M342.932,68.099c-2.772-2.685-6.829-3.064-9.28-3.064-2.247,0-4.582,.292-6.975,1.634-1.488,.817-3.21,2.247-4.582,4.64-.817-1.634-2.16-3.502-4.64-4.786-1.809-.963-4.056-1.488-6.449-1.488-3.298,0-7.179,1.196-10.039,4.64v-4.056h-5.399l-4.261,7.996-.817,1.547h-1.518v23.959h11.994v-16.547c0-2.101,0-5.34,2.101-7.354,.992-.992,2.014-1.197,3.298-1.197,1.196,0,2.539,.204,3.589,1.342,1.372,1.43,1.576,3.969,1.576,7.208v16.547h11.994v-17.16c0-1.663,.146-4.407,2.189-6.362,1.021-.992,2.16-1.372,3.502-1.372,1.576,0,2.48,.525,3.152,1.138,1.342,1.284,1.722,3.677,1.722,7.208v16.547h11.994v-21.8c0-2.335-.146-6.303-3.152-9.222Z"/><path class="cls-1" d="M137.988,98.366c-3.221,1.574-5.845,1.873-8.315,1.873-6.519,0-10.789-2.77-13.187-5.094-3.148-3.075-5.17-7.571-5.17-12.513s2.022-9.664,5.393-12.964c3.148-2.995,7.794-5.094,13.489-5.094,2.096,0,4.795,.378,7.791,1.873v10.042c-1.574-1.123-3.67-2.172-6.22-2.172-2.846,0-4.643,1.123-5.845,2.318-1.647,1.653-2.321,3.825-2.321,5.771,0,1.873,.674,4.045,2.099,5.619,1.123,1.202,3.072,2.55,6.143,2.55,1.723,0,3.972-.378,6.143-2.251v10.042Z"/><path class="cls-1" d="M156.061,65.623v18.729c0,1.348,.226,3.447,1.797,4.875,1.199,1.049,2.773,1.269,4.197,1.269,1.498,0,2.922-.146,4.271-1.421,1.498-1.501,1.723-3.221,1.723-4.722v-18.729h11.988v20.907c0,2.843-.226,5.918-3.221,8.986-4.121,4.271-9.889,4.722-14.462,4.722-5.018,0-11.164-.525-15.133-4.795-2.55-2.697-3.148-5.692-3.148-8.913v-20.907h11.988Z"/><path class="cls-1" d="M189.725,88.025c1.425,1.049,3.148,1.946,4.795,2.471,1.501,.525,3.374,.83,4.646,.83,.9,0,2.324-.226,3.072-.903,.525-.525,.601-.976,.601-1.574,0-.525-.076-1.049-.601-1.495-.747-.677-1.946-.903-3.145-1.202l-3.148-.75c-1.647-.372-4.045-.97-5.845-2.922-1.272-1.348-2.172-3.221-2.172-5.765,0-3.221,1.272-6.223,3.145-8.169,2.55-2.623,7.043-4.045,11.988-4.045s8.767,1.348,10.716,2.172l-4.048,7.644c-1.647-.75-4.118-1.653-6.293-1.653-1.199,0-2.022,.226-2.773,.677-.674,.372-1.049,.897-1.049,1.647,0,1.049,.677,1.574,1.425,1.873,1.126,.451,2.099,.451,3.972,.976l2.172,.598c1.574,.451,3.972,1.647,4.945,2.623,1.65,1.574,2.55,4.197,2.55,6.668,0,4.045-1.723,6.741-3.374,8.315-3.895,3.898-9.59,4.197-12.363,4.197-2.995,0-7.714-.372-13.486-3.898l4.271-8.315Z"/><path class="cls-1" d="M389.194,84.578h-24.952c0,1.8,.674,4.197,2.099,5.619,.75,.75,2.248,1.647,4.945,1.647,.299,0,2.398-.073,3.895-.897,.75-.451,1.574-1.196,2.099-2.245h11.463c-.525,1.873-1.574,4.496-4.045,6.894-2.474,2.398-6.369,4.643-13.638,4.643-4.42,0-9.74-.976-13.861-5.094-2.172-2.172-4.945-6.296-4.945-12.665,0-5.619,2.099-10.115,5.021-12.958,2.773-2.697,7.117-4.875,13.712-4.875,3.895,0,8.916,.824,12.888,4.576,4.719,4.49,5.32,10.335,5.32,14.081v1.275Zm-11.015-6.894c-.299-1.269-1.049-2.697-1.949-3.593-1.574-1.574-3.746-1.8-4.945-1.8-2.022,0-3.596,.525-4.868,1.8-.827,.897-1.574,2.099-1.8,3.593h13.562Z"/><path class="cls-1" d="M395.362,65.623h11.988v5.472c1.199-2.251,2.922-3.746,4.719-4.649,1.8-.976,3.972-1.348,6.22-1.348,.299,0,.824,.073,2.398,.153v11.311c-.598-.299-2.248-1.196-5.17-1.196-1.574,0-3.746,.22-5.469,1.794-2.547,2.324-2.697,5.845-2.697,7.644v14.312h-11.988v-33.493Z"/><path class="cls-2" d="M118.518,110.815l11.026,.011-.87,3.605c3.359-3.069,7.202-4.131,10.232-4.128,2.205,.002,4.16,.472,5.607,1.338,1.998,1.139,2.836,2.809,3.242,4.278,1.756-2.135,3.647-3.401,5.201-4.133,2.495-1.199,4.694-1.464,6.762-1.461,2.275,.002,5.915,.338,7.886,2.744,2.127,2.607,1.413,6.147,.913,8.218l-4.689,19.432-11.026-.011,3.561-14.756c.758-3.143,.929-5.28-.038-6.412-.49-.539-1.205-1.007-2.653-1.009-1.24-.001-2.357,.335-3.528,1.198-2.283,1.738-3.016,4.206-3.37,5.674l-3.691,15.294-11.026-.011,3.561-14.756c.693-2.871,1.036-5.144,.099-6.412-.72-1.007-1.915-1.204-3.018-1.205-1.17-.001-2.182,.194-3.287,1.063-2.366,1.803-3.059,4.674-3.51,6.544l-3.561,14.756-11.026-.011,7.203-29.849Z"/><path class="cls-2" d="M202.777,136.815c-4.999,3.867-10.013,4.933-14.974,4.928-4.48-.005-9.234-.88-12.521-4.956-2.605-3.206-3.064-7.013-2.097-11.02,1.29-5.345,4.607-8.811,7.398-10.945,3.127-2.401,8.221-4.935,14.906-4.928,6.82,.007,10.602,2.616,12.588,4.956,1.76,2.139,3.403,5.611,2.113,10.955-.967,4.007-3.263,7.812-7.414,11.011Zm-14.839-15.912c-1.687,1.271-2.895,3.135-3.315,4.875-.434,1.8,.044,3.54,.994,4.743,1.002,1.268,2.617,2.004,4.477,2.006,1.793,.002,3.76-.73,5.376-1.996,1.685-1.271,2.863-3.004,3.282-4.739,.387-1.604,.094-3.54-.961-4.879-.966-1.138-2.703-1.939-4.426-1.941-1.79-.002-3.913,.795-5.427,1.93Z"/><path class="cls-2" d="M227.313,110.927l3.684,15.297,11.2-15.281,12.266,.013-23.259,29.833-7.511-.008-8.716-29.866,12.336,.013Z"/><path class="cls-2" d="M132.344,42.789V0h-36.898V19.991h-12.292c-.447-.638-.978-1.17-1.616-1.616V0H44.597V53.252c-1.765,1.255-2.914,3.318-2.914,5.657,0,3.828,3.105,6.954,6.954,6.954,.936,0,1.829-.191,2.658-.532l22.181,13.909,3.785,2.382,2.446,1.531,.255,.234c0,.106,0,.213,.021,.319,.234,1.978,1.297,3.7,2.85,4.785v45.192h-20.82v-10.314c.638-.447,1.17-.978,1.616-1.616,.829-1.127,1.297-2.509,1.297-4.019s-.468-2.892-1.297-4.041c-.447-.638-.978-1.17-1.616-1.616-1.127-.808-2.509-1.297-4.019-1.297s-2.892,.489-4.041,1.297c-.638,.447-1.17,.978-1.616,1.616H31.985v19.991H11.208v-35.473c1.638-1.255,2.68-3.233,2.68-5.466,0-2.318-1.148-4.381-2.914-5.636-1.127-.829-2.531-1.297-4.041-1.297s-2.892,.468-4.019,1.297c-1.765,1.255-2.914,3.318-2.914,5.636,0,2.339,1.148,4.402,2.914,5.657,.085,.064,.149,.106,.234,.17v43.172H40.045v-19.991h12.292c.447,.638,.978,1.17,1.616,1.616v18.374h36.94v-53.252c1.574-1.127,2.658-2.892,2.871-4.913,.021-.298,.043-.574,.043-.872,0-.489-.064-.957-.17-1.425-.085-.425-.234-.808-.404-1.212-.191-.447-.447-.893-.744-1.276-.447-.659-.957-1.255-1.595-1.723-1.127-.829-2.531-1.297-4.041-1.297-.978,0-1.914,.191-2.765,.574-.021,0-.021,.021-.043,.021l-.064-.042-2.446-1.531-8.06-5.062-17.928-11.25c-.128-2.169-1.234-4.062-2.892-5.232V8.06h20.82v10.314c-.638,.447-1.17,.978-1.616,1.616-.829,1.127-1.297,2.51-1.297,4.019s.468,2.892,1.297,4.041c.447,.638,.978,1.17,1.616,1.616,1.127,.808,2.509,1.297,4.019,1.297s2.892-.489,4.041-1.297c.638-.447,1.17-.978,1.616-1.616h20.352V8.06h20.778V42.789c-1.765,1.255-2.914,3.318-2.914,5.636,0,2.339,1.148,4.402,2.914,5.657,1.127,.808,2.509,1.297,4.019,1.297s2.914-.489,4.041-1.297c1.765-1.255,2.914-3.318,2.914-5.657,0-2.318-1.148-4.381-2.914-5.636Z"/><path class="cls-1" d="M149.957,0c3.796,0,6.831,3.035,6.831,6.83s-3.035,6.828-6.831,6.828-6.828-3.035-6.828-6.828,3.035-6.83,6.828-6.83Zm6.07,20.942V54.86h-12.141V20.942h12.141Z"/><path class="cls-1" d="M164.599,43.63c1.442,1.062,3.189,1.974,4.856,2.504,1.519,.532,3.417,.835,4.705,.835,.912,0,2.354-.228,3.112-.911,.53-.532,.607-.986,.607-1.593,0-.532-.077-1.063-.607-1.518-.758-.684-1.972-.911-3.186-1.214l-3.189-.759c-1.667-.379-4.095-.986-5.916-2.96-1.291-1.365-2.2-3.262-2.2-5.842,0-3.263,1.288-6.298,3.186-8.27,2.579-2.656,7.13-4.098,12.141-4.098s8.877,1.367,10.85,2.202l-4.098,7.739c-1.667-.758-4.172-1.669-6.372-1.669-1.214,0-2.049,.227-2.807,.683-.684,.379-1.063,.911-1.063,1.67,0,1.062,.684,1.593,1.442,1.897,1.137,.455,2.123,.455,4.021,.986l2.2,.607c1.593,.455,4.021,1.669,5.007,2.656,1.67,1.593,2.582,4.249,2.582,6.753,0,4.098-1.747,6.828-3.417,8.423-3.944,3.946-9.712,4.249-12.52,4.249-3.035,0-7.814-.38-13.657-3.946l4.323-8.423Z"/><path class="cls-2" d="M275.823,110.917h10.702l-.964,3.746c3.943-3.879,8.027-4.414,10.635-4.414,3.077,0,6.164,.735,8.004,3.211,1.886,2.541,1.5,5.083,.656,8.361l-4.89,18.996h-10.702l3.891-15.116c.448-1.74,1.185-4.349,.159-5.82-.727-1.07-2.012-1.271-3.082-1.271-1.673,0-3.232,.602-4.308,1.404-1.329,1.004-2.499,2.943-2.964,4.749l-4.133,16.053h-10.702l7.697-29.899Z"/><path class="cls-2" d="M346.923,110.917l-7.215,28.026c-1.154,4.482-2.606,8.563-7.265,12.374-4.813,3.881-10.07,4.816-14.419,4.816-5.549,0-9.803-1.404-12.618-5.283-1.273-1.806-1.946-3.613-1.677-6.221h11.905c.092,1.205,.68,3.079,4.224,3.079,1.673,0,3.433-.337,5.181-1.673,2.237-1.673,3.122-3.814,3.57-5.552l.775-3.01c-4.259,3.545-7.573,3.945-9.979,3.945-5.484,0-8.478-2.14-9.951-4.214-1.97-2.742-2.391-6.822-1.341-10.902,1.205-4.683,4.114-8.964,7.427-11.706,3.651-3.01,8.062-4.548,12.009-4.548,1.872,0,5.647,.401,7.88,3.947l.792-3.077h10.702Zm-24.389,10.034c-1.951,1.605-2.95,3.41-3.312,4.816-.448,1.738-.176,3.545,.816,4.882,1.043,1.404,2.711,1.939,4.317,1.939,1.673,0,3.734-.736,5.332-2.006,1.681-1.338,2.851-3.277,3.247-4.816s.061-3.613-.884-4.882c-.893-1.205-2.445-1.941-4.251-1.941s-3.499,.602-5.265,2.007Z"/><path class="cls-1" d="M233.35,65.61v-7.821h-11.994v7.821h-3.823v9.835h3.823v23.667h11.994v-23.667h6.829v-9.835h-6.829Z"/><path class="cls-1" d="M281.297,75.161h-10.944l2.218-4.261,1.751-3.356c-2.831-1.693-6.654-3.035-11.673-3.035-7.267,0-12.14,2.831-14.913,5.545-2.451,2.393-5.165,6.274-5.165,12.286,0,4.494,1.517,8.755,5.165,12.344,3.502,3.444,7.383,4.844,11.177,5.341,0-.759,.088-1.518,.292-2.276,1.196-4.611,5.749-8.2,10.389-8.2,2.48,0,4.698,1.022,6.07,2.802,.671,.846,1.109,1.868,1.342,2.947,.234-.204,.438-.409,.642-.613,3.677-3.589,5.165-7.85,5.165-12.344,0-2.86-.613-5.224-1.518-7.179Zm-13.249,12.49c-1.43,1.43-3.356,2.247-5.311,2.247-2.014,0-3.969-.817-5.399-2.247-1.342-1.342-2.335-3.298-2.335-5.311,0-1.955,.846-4.056,2.335-5.486,1.342-1.255,3.444-2.16,5.399-2.16,1.868,0,3.969,.905,5.311,2.16,1.488,1.517,2.335,3.677,2.335,5.486,0,1.926-.846,3.881-2.335,5.311Z"/><polygon class="cls-1" points="315.967 20.939 292.241 65.618 288.972 71.805 288.739 72.243 275.14 72.243 276.687 69.237 286.521 50.239 270.15 20.939 284.245 20.939 293.292 38.332 302.076 20.939 315.967 20.939"/><path class="cls-2" d="M259.498,110.91l-7.704,29.912h10.71l7.704-29.912h-10.71Z"/><path class="cls-2" d="M274.264,97.369c0,.35-.058,.73-.175,1.109-.875,3.356-4.232,6.012-7.587,6.012-2.743,0-4.582-1.78-4.64-4.29-.058-.554,.029-1.138,.175-1.722,.846-3.356,4.232-6.012,7.558-6.012,2.977,0,4.873,2.072,4.669,4.903Z"/><path class="cls-1" d="M267.786,32.78v22.091h-12.14v-16.78c0-3.56-.379-5.983-1.751-7.296-.671-.584-1.576-1.138-3.181-1.138-1.372,0-2.51,.379-3.56,1.372-2.043,1.984-2.189,4.786-2.189,6.449v17.393h-12.14v-16.78c0-3.269-.234-5.837-1.605-7.296-1.051-1.138-2.422-1.342-3.648-1.342-1.284,0-2.335,.204-3.327,1.196-2.13,2.043-2.13,5.311-2.13,7.442v16.78h-12.14V20.931h12.14v4.115c2.889-3.502,6.829-4.698,10.156-4.698,2.451,0,4.728,.525,6.537,1.517,2.51,1.284,3.881,3.181,4.699,4.844,1.372-2.422,3.122-3.881,4.64-4.698,2.422-1.372,4.786-1.663,7.062-1.663,2.481,0,6.595,.379,9.397,3.093,3.035,2.977,3.181,6.975,3.181,9.339Z"/></svg>