<svg xmlns="http://www.w3.org/2000/svg" xmlns:xlink="http://www.w3.org/1999/xlink" viewBox="0 0 1286.04 742.93"><defs><style>.cls-1{fill:url(#linear-gradient);}.cls-2{fill:#e7f6ff;}.cls-3{fill:none;}.cls-18,.cls-4{fill:#426572;}.cls-5{fill:#fff;}.cls-6{fill:#e8edf7;}.cls-7{fill:#c1cede;}.cls-8{fill:#f1f6fe;}.cls-9{fill:#e2f2ff;}.cls-10{fill:#cadce8;}.cls-11{fill:#87d6fe;}.cls-12{fill:#a8ef9e;}.cls-13,.cls-14{fill:#606060;}.cls-13{opacity:0.1;}.cls-14{opacity:0.2;}.cls-15{fill:#dee6f1;}.cls-16{fill:#e8837e;}.cls-17{fill:#d66765;}.cls-18{font-size:86.44px;font-family:Dosis-Bold, Dosis;font-weight:700;}</style><linearGradient id="linear-gradient" x1="1.32" y1="371.19" x2="1254.6" y2="371.19" gradientUnits="userSpaceOnUse"><stop offset="0" stop-color="#c5e9fa"/><stop offset="1" stop-color="#c4f4ea"/></linearGradient></defs><title>Asset 17</title><g id="Layer_2" data-name="Layer 2"><g id="Layer_1-2" data-name="Layer 1"><path class="cls-1" d="M1218.18,449.46c-45.45,117.68-130.9,220.78-249.59,266.09a431.14,431.14,0,0,1-47.21,14.95C836.7,752.09,744.06,744.58,666,705.24c-33.13-16.71-63.34-38.79-96.59-55.26S498.19,622.73,462,630.86c-31.16,7-57.45,27.06-83.92,44.93-62.4,42.13-137.43,75.47-211.32,61-34-6.65-67.48-25.07-83.27-55.86-34.9-68.07,30.92-149,17.59-224.28-8.53-48.18-47.49-84.26-71.71-126.78C-12.08,257.14-7.18,160.53,41.42,92.38S179.74-11.92,262,3.54C362.31,22.4,438.15,107.29,535.69,137.33c61,18.77,127.23,13.17,185.49-11.55,94.13-39.95,223.45-101.22,329.38-91.24,56.33,5.31,111.58,30.31,148.76,73,47,53.89,61.09,130.4,53.25,201.46A563.35,563.35,0,0,1,1218.18,449.46Z"/><path class="cls-2" d="M1248.42,542.54a26.3,26.3,0,0,1-6.2-.75,25.94,25.94,0,1,1,6.2.75Zm0-40.18a14.09,14.09,0,0,0-3.32,27.77h0a14.08,14.08,0,1,0,3.32-27.77Z"/><circle class="cls-2" cx="1213.76" cy="567.4" r="11.33" transform="translate(376.29 1613.25) rotate(-76.37)"/><path class="cls-2" d="M55.19,540.07a26.09,26.09,0,1,1,1.14,0Zm0-40.17H54.6a14.09,14.09,0,1,0,.61,0Z"/><circle class="cls-2" cx="36.08" cy="572.54" r="11.33" transform="translate(-24.62 2.08) rotate(-2.47)"/><path class="cls-2" d="M709.08,118.26A26.06,26.06,0,1,1,724,113.55,26.07,26.07,0,0,1,709.08,118.26ZM709,78.1a14.14,14.14,0,1,0,2.47.22A14.17,14.17,0,0,0,709,78.1Z"/><circle class="cls-2" cx="649.4" cy="107.59" r="11.33" transform="translate(55.91 392.32) rotate(-35.04)"/><rect class="cls-3" x="713.36" y="105.14" width="44.48" height="44.48"/><rect class="cls-3" x="713.36" y="105.14" width="44.48" height="44.48"/><path class="cls-4" d="M839.66,724.13"/><path class="cls-5" d="M1286,252.66a41.46,41.46,0,0,0-41.46-41.46c-.92,0-1.83,0-2.73.09.06-.9.09-1.81.09-2.73a41.46,41.46,0,1,0-81.56,10.54,41.46,41.46,0,1,0-32.61,74.19,41.46,41.46,0,0,0,68.84,13.94,41.46,41.46,0,0,0,62.66-15.8A41.47,41.47,0,0,0,1286,252.66Z"/><path class="cls-5" d="M191.45,153A41.46,41.46,0,0,0,150,111.5c-.92,0-1.83,0-2.73.09.06-.9.09-1.81.09-2.73A41.46,41.46,0,1,0,65.8,119.4a41.46,41.46,0,1,0-32.61,74.19A41.46,41.46,0,0,0,102,207.53a41.46,41.46,0,0,0,62.66-15.8A41.47,41.47,0,0,0,191.45,153Z"/><path class="cls-4" d="M954.18,742.93H357.68v-13h596.5a6.5,6.5,0,1,1,0,13Z"/><path class="cls-4" d="M331,742.93H294.53a6.5,6.5,0,0,1,0-13H331a6.5,6.5,0,1,1,0,13Z"/><path class="cls-4" d="M270.86,742.93H259.24a6.5,6.5,0,0,1,0-13h11.62a6.5,6.5,0,0,1,0,13Z"/><path class="cls-4" d="M1163.34,742.93H980v-13h183.34a6.5,6.5,0,0,1,0,13Z"/><path class="cls-4" d="M226,742.93H42.65v-13H226a6.5,6.5,0,1,1,0,13Z"/><rect class="cls-6" x="537.24" y="541.49" width="180" height="174" rx="12" ry="12"/><rect class="cls-7" x="537.24" y="613.49" width="180" height="55"/><path class="cls-4" d="M702.75,723.49h-156a18,18,0,0,1-18-18v-150a18,18,0,0,1,18-18h156a18,18,0,0,1,18,18v150A18,18,0,0,1,702.75,723.49Zm-156-174a6,6,0,0,0-6,6v150a6,6,0,0,0,6,6h156a6,6,0,0,0,6-6v-150a6,6,0,0,0-6-6Z"/><path class="cls-6" d="M1082.74,128.47v462a50,50,0,0,1-37.17,48.32h0a49.94,49.94,0,0,1-12.79,1.65H222.71a50,50,0,0,1-50-50v-462a49.78,49.78,0,0,1,7.38-26.16c.63-1,1.3-2,2-3a50.06,50.06,0,0,1,21.82-17.18h0a49.56,49.56,0,0,1,18.75-3.65h810.05A50,50,0,0,1,1082.74,128.47Z"/><path class="cls-4" d="M1026.77,648.49h-810a56,56,0,0,1-56-56v-462a55.76,55.76,0,0,1,15-38.11c.64-.7,1.36-1.43,2.24-2.28a55.74,55.74,0,0,1,38.76-15.59h810a56,56,0,0,1,56,56v462a55.94,55.94,0,0,1-56,56Zm-810-562a43.74,43.74,0,0,0-30.45,12.26c-.69.66-1.24,1.22-1.73,1.75a43.83,43.83,0,0,0-11.8,30v462a44,44,0,0,0,44,44h810a43.94,43.94,0,0,0,44-44v-462a44,44,0,0,0-44-44Z"/><rect class="cls-7" x="198.26" y="110.49" width="849" height="504" rx="29.87" ry="29.87"/><path class="cls-8" d="M232.62,126.49h780.26a16.84,16.84,0,0,1,16.84,16.84V533.49a0,0,0,0,1,0,0H215.78a0,0,0,0,1,0,0V143.33A16.84,16.84,0,0,1,232.62,126.49Z"/><path class="cls-6" d="M1045.26,531.49v51.13a29.88,29.88,0,0,1-29.87,29.87H226.13a29.87,29.87,0,0,1-29.87-29.87V531.49h17.53v2h813.94v-2Z"/><rect class="cls-7" x="198.73" y="529.49" width="847" height="18"/><rect class="cls-4" x="200.76" y="525.49" width="844" height="12"/><rect class="cls-5" x="299.73" y="161.49" width="636" height="332" rx="12" ry="12"/><polygon class="cls-9" points="309.73 219.49 937.73 219.49 937.73 177.31 925.73 161.49 375.73 161.49 321.73 161.49 301.73 177.31 301.73 219.49 309.73 219.49"/><path class="cls-4" d="M925.73,499.49h-612a18,18,0,0,1-18-18v-308a18,18,0,0,1,18-18h612a18,18,0,0,1,18,18v308A18,18,0,0,1,925.73,499.49Zm-612-332a6,6,0,0,0-6,6v308a6,6,0,0,0,6,6h612a6,6,0,0,0,6-6v-308a6,6,0,0,0-6-6Z"/><rect class="cls-6" x="466.24" y="694.49" width="315.68" height="37" rx="12" ry="12"/><path class="cls-4" d="M771.24,738.49H479.56a18,18,0,0,1-18-18v-13a18,18,0,0,1,18-18H771.24a18,18,0,0,1,18,18v13A18,18,0,0,1,771.24,738.49Zm-291.68-37a6,6,0,0,0-6,6v13a6,6,0,0,0,6,6H771.24a6,6,0,0,0,6-6v-13a6,6,0,0,0-6-6Z"/><circle class="cls-10" cx="338.24" cy="192.74" r="8"/><circle class="cls-10" cx="362.24" cy="192.74" r="8"/><circle class="cls-10" cx="386.24" cy="192.74" r="8"/><rect class="cls-10" x="413.24" y="184.74" width="500" height="16" rx="6.5" ry="6.5"/><rect class="cls-11" x="337.24" y="245.49" width="570" height="114" rx="12" ry="12"/><path class="cls-4" d="M894.24,367.49h-546a18,18,0,0,1-18-18v-90a18,18,0,0,1,18-18h546a18,18,0,0,1,18,18v90A18,18,0,0,1,894.24,367.49Zm-546-114a6,6,0,0,0-6,6v90a6,6,0,0,0,6,6h546a6,6,0,0,0,6-6v-90a6,6,0,0,0-6-6Z"/><rect class="cls-12" x="341.39" y="394.49" width="170.81" height="63" rx="12" ry="12"/><path class="cls-4" d="M498.06,464.49H351.24a18,18,0,0,1-18-18v-39a18,18,0,0,1,18-18H498.06a18,18,0,0,1,18,18v39A18,18,0,0,1,498.06,464.49Zm-146.81-63a6,6,0,0,0-6,6v39a6,6,0,0,0,6,6H498.06a6,6,0,0,0,6-6v-39a6,6,0,0,0-6-6Z"/><rect class="cls-12" x="536.91" y="394.49" width="170.81" height="63" rx="12" ry="12"/><path class="cls-4" d="M693.58,464.49H546.76a18,18,0,0,1-18-18v-39a18,18,0,0,1,18-18H693.58a18,18,0,0,1,18,18v39A18,18,0,0,1,693.58,464.49Zm-146.81-63a6,6,0,0,0-6,6v39a6,6,0,0,0,6,6H693.58a6,6,0,0,0,6-6v-39a6,6,0,0,0-6-6Z"/><rect class="cls-12" x="732.43" y="394.49" width="170.81" height="63" rx="12" ry="12"/><path class="cls-4" d="M889.1,464.49H742.28a18,18,0,0,1-18-18v-39a18,18,0,0,1,18-18H889.1a18,18,0,0,1,18,18v39A18,18,0,0,1,889.1,464.49Zm-146.81-63a6,6,0,0,0-6,6v39a6,6,0,0,0,6,6H889.1a6,6,0,0,0,6-6v-39a6,6,0,0,0-6-6Z"/><path class="cls-4" d="M1017.38,618.49H228.13a35.91,35.91,0,0,1-35.87-35.87V138.36a35.91,35.91,0,0,1,35.87-35.87h789.25a35.91,35.91,0,0,1,35.87,35.87V582.61A35.91,35.91,0,0,1,1017.38,618.49Zm-789.25-504a23.9,23.9,0,0,0-23.87,23.87V582.61a23.9,23.9,0,0,0,23.87,23.87h789.25a23.9,23.9,0,0,0,23.87-23.87V138.36a23.9,23.9,0,0,0-23.87-23.87Z"/><path class="cls-13" d="M111.12,192.39a11.8,11.8,0,0,0,5,1.1h-5Z"/><path class="cls-14" d="M396.24,78.49V200.74a12,12,0,0,1-12,12H166.75v-22H111.12V51.49a12,12,0,0,1,12-12H368.24v39Z"/><rect class="cls-5" x="83.12" y="17.49" width="285" height="171" rx="12" ry="12" transform="translate(451.24 205.97) rotate(180)"/><rect class="cls-15" x="181.12" y="173.99" width="185" height="11"/><path class="cls-16" d="M85.24,177.74v-147a12,12,0,0,1,12-12h84.88v171H97.24A12,12,0,0,1,85.24,177.74Z"/><path class="cls-17" d="M111.12,192.39a11.8,11.8,0,0,0,5,1.1h-17a12,12,0,0,1-8.74-3.79,12.24,12.24,0,0,1-2.29-3.5,13.48,13.48,0,0,1-.48-1.31,11.94,11.94,0,0,1-.49-3.4v-147a12,12,0,0,1,12-12h17a12,12,0,0,0-12,12v147a11.88,11.88,0,0,0,2.27,7,11.24,11.24,0,0,0,1,1.25,14.41,14.41,0,0,0,1.07,1A11.76,11.76,0,0,0,111.12,192.39Z"/><path class="cls-4" d="M356.24,196.74h-261a17.74,17.74,0,0,1-7.32-1.57,18,18,0,0,1-10.68-16.43v-147A18.12,18.12,0,0,1,88.54,15l1-.5h.38a17.7,17.7,0,0,1,5.3-.8h261a18.08,18.08,0,0,1,17.82,15.49,17.27,17.27,0,0,1,.18,2.51v147a17.84,17.84,0,0,1-3.35,10.43A18,18,0,0,1,356.24,196.74Zm-264-170.2a6,6,0,0,0-3,5.2v147a6,6,0,0,0,3.58,5.48,5.83,5.83,0,0,0,2.42.52h261a6,6,0,0,0,4.88-2.54,5.92,5.92,0,0,0,1.12-3.46v-147a5.41,5.41,0,0,0-.06-.79,6,6,0,0,0-5.94-5.21h-261a5.76,5.76,0,0,0-1.93.32Z"/><rect class="cls-4" x="174.12" y="21.49" width="12" height="168"/><text class="cls-18" transform="translate(225.34 140)">AD</text><path class="cls-4" d="M1006.24,513.49"/><rect class="cls-5" x="931.76" y="468.67" width="271.87" height="163.12" rx="12" ry="12" transform="translate(517.45 1617.92) rotate(-90)"/><path class="cls-15" d="M1149.24,430.92V676.2A13.33,13.33,0,0,1,1136,689.49H999.42a13.33,13.33,0,0,1-13.29-13.29v-8.86h125.46A13.33,13.33,0,0,0,1124.88,654V417.63H1136A13.33,13.33,0,0,1,1149.24,430.92Z"/><path class="cls-4" d="M1135.65,692.29H995.43A17.3,17.3,0,0,1,985.32,689a17.48,17.48,0,0,1-7.34-14.2v-249a17.2,17.2,0,0,1,1.52-7.1,17.46,17.46,0,0,1,15.93-10.35h140.23a17.56,17.56,0,0,1,16.19,11l.49,1v.35a17.18,17.18,0,0,1,.77,5.1v249a17.53,17.53,0,0,1-15,17.27A16.87,16.87,0,0,1,1135.65,692.29ZM995.43,420.42a5.46,5.46,0,0,0-5,3.25,5.3,5.3,0,0,0-.47,2.2v249a5.47,5.47,0,0,0,2.31,4.43,5.37,5.37,0,0,0,3.14,1h140.23a4.89,4.89,0,0,0,.72,0,5.48,5.48,0,0,0,4.73-5.4v-249a5.2,5.2,0,0,0-.3-1.76l-.47-1a5.48,5.48,0,0,0-4.68-2.68Z"/><rect class="cls-4" x="1016.77" y="503.07" width="99.68" height="12"/><rect class="cls-4" x="1016.77" y="469.84" width="99.68" height="12"/><rect class="cls-4" x="1016.77" y="540.73" width="99.68" height="12"/><path class="cls-5" d="M813.91,565.49H968.24c3.86,0,3.87-6,0-6H813.91c-3.86,0-3.87,6,0,6Z"/><path class="cls-5" d="M754.24,565.49h40.17c3.86,0,3.87-6,0-6H754.24c-3.86,0-3.87,6,0,6Z"/></g></g></svg>