<svg xmlns="http://www.w3.org/2000/svg" xmlns:xlink="http://www.w3.org/1999/xlink" viewBox="0 0 1286.04 743.14"><defs><style>.cls-1{fill:url(#linear-gradient);}.cls-2{fill:#e7f6ff;}.cls-3{fill:none;}.cls-4{fill:#426572;}.cls-5{fill:#fff;}.cls-6{fill:#e2f2ff;}.cls-7{fill:#cadce8;}.cls-8{fill:#e8837e;}.cls-9{fill:#dde4ed;}.cls-10{fill:#606060;opacity:0.2;}.cls-11{fill:#a8ef9e;}.cls-12{fill:#e8edf7;}.cls-13{fill:#c1cede;opacity:0.3;}</style><linearGradient id="linear-gradient" x1="1.32" y1="371.19" x2="1254.6" y2="371.19" gradientUnits="userSpaceOnUse"><stop offset="0" stop-color="#c5e9fa"/><stop offset="1" stop-color="#c4f4ea"/></linearGradient></defs><title>Asset 20</title><g id="Layer_2" data-name="Layer 2"><g id="Layer_1-2" data-name="Layer 1"><path class="cls-1" d="M1218.18,449.46c-45.45,117.68-130.9,220.78-249.59,266.09a431.14,431.14,0,0,1-47.21,14.95C836.7,752.09,744.06,744.58,666,705.24c-33.13-16.71-63.34-38.79-96.59-55.26S498.19,622.73,462,630.86c-31.16,7-57.45,27.06-83.92,44.93-62.4,42.13-137.43,75.47-211.32,61-34-6.65-67.48-25.07-83.27-55.86-34.9-68.07,30.92-149,17.59-224.28-8.53-48.18-47.49-84.26-71.71-126.78C-12.08,257.14-7.18,160.53,41.42,92.38S179.74-11.92,262,3.54C362.31,22.4,438.15,107.29,535.69,137.33c61,18.77,127.23,13.17,185.49-11.55,94.13-39.95,223.45-101.22,329.38-91.24,56.33,5.31,111.58,30.31,148.76,73,47,53.89,61.09,130.4,53.25,201.46A563.35,563.35,0,0,1,1218.18,449.46Z"/><path class="cls-2" d="M1248.42,542.54a26.3,26.3,0,0,1-6.2-.75,25.94,25.94,0,1,1,6.2.75Zm0-40.18a14.09,14.09,0,0,0-3.32,27.77h0a14.08,14.08,0,1,0,3.32-27.77Z"/><circle class="cls-2" cx="1213.76" cy="567.4" r="11.33" transform="translate(376.29 1613.25) rotate(-76.37)"/><path class="cls-2" d="M55.19,540.07a26.09,26.09,0,1,1,1.14,0Zm0-40.17H54.6a14.09,14.09,0,1,0,.61,0Z"/><circle class="cls-2" cx="36.08" cy="572.54" r="11.33" transform="translate(-24.62 2.08) rotate(-2.47)"/><path class="cls-2" d="M709.08,118.26A26.06,26.06,0,1,1,724,113.55,26.07,26.07,0,0,1,709.08,118.26ZM709,78.1a14.14,14.14,0,1,0,2.47.22A14.17,14.17,0,0,0,709,78.1Z"/><circle class="cls-2" cx="649.4" cy="107.59" r="11.33" transform="translate(55.91 392.32) rotate(-35.04)"/><rect class="cls-3" x="713.36" y="105.14" width="44.48" height="44.48"/><rect class="cls-3" x="713.36" y="105.14" width="44.48" height="44.48"/><path class="cls-4" d="M839.66,724.13"/><path class="cls-5" d="M1286,252.66a41.46,41.46,0,0,0-41.46-41.46c-.92,0-1.83,0-2.73.09.06-.9.09-1.81.09-2.73a41.46,41.46,0,1,0-81.56,10.54,41.46,41.46,0,1,0-32.61,74.19,41.46,41.46,0,0,0,68.84,13.94,41.46,41.46,0,0,0,62.66-15.8A41.47,41.47,0,0,0,1286,252.66Z"/><path class="cls-5" d="M191.45,153A41.46,41.46,0,0,0,150,111.5c-.92,0-1.83,0-2.73.09.06-.9.09-1.81.09-2.73A41.46,41.46,0,1,0,65.8,119.4a41.46,41.46,0,1,0-32.61,74.19A41.46,41.46,0,0,0,102,207.53a41.46,41.46,0,0,0,62.66-15.8A41.47,41.47,0,0,0,191.45,153Z"/><path class="cls-4" d="M954.18,742.93H357.68v-13h596.5a6.5,6.5,0,1,1,0,13Z"/><path class="cls-4" d="M331,742.93H294.53a6.5,6.5,0,0,1,0-13H331a6.5,6.5,0,1,1,0,13Z"/><path class="cls-4" d="M270.86,742.93H259.24a6.5,6.5,0,0,1,0-13h11.62a6.5,6.5,0,0,1,0,13Z"/><path class="cls-4" d="M1163.34,742.93H980v-13h183.34a6.5,6.5,0,0,1,0,13Z"/><path class="cls-4" d="M226,742.93H42.65v-13H226a6.5,6.5,0,1,1,0,13Z"/><path class="cls-4" d="M979.78,613.42"/><path class="cls-5" d="M712,174.82V737.14H102.84V174.82a11.53,11.53,0,0,1,11.49-11.49H700.5a11.29,11.29,0,0,1,2.06.19A11.53,11.53,0,0,1,712,174.82Z"/><polygon class="cls-6" points="112.42 218.88 713.91 218.88 713.91 178.48 702.41 163.33 175.64 163.33 114.34 163.33 104.76 178.48 104.76 218.88 112.42 218.88"/><path class="cls-4" d="M719.91,743.14H98.76V174.82a17.51,17.51,0,0,1,17.49-17.49H702.41a17.51,17.51,0,0,1,17.49,17.49Zm-609.15-12H707.91V174.82a5.5,5.5,0,0,0-5.49-5.49H116.25a5.5,5.5,0,0,0-5.49,5.49Z"/><circle class="cls-7" cx="139.74" cy="193.26" r="7.66"/><circle class="cls-7" cx="162.72" cy="193.26" r="7.66"/><circle class="cls-7" cx="185.71" cy="193.26" r="7.66"/><rect class="cls-7" x="211.57" y="185.59" width="478.89" height="15.32" rx="6.5" ry="6.5"/><path class="cls-5" d="M1117.13,65.63V737.14H508V65.63a11.53,11.53,0,0,1,11.49-11.49h586.16a11.29,11.29,0,0,1,2.06.19A11.53,11.53,0,0,1,1117.13,65.63Z"/><polygon class="cls-6" points="517.56 109.69 1119.05 109.69 1119.05 69.29 1107.55 54.14 580.78 54.14 529.06 54.14 509.9 69.29 509.9 109.69 517.56 109.69"/><path class="cls-4" d="M1125,743.14H503.9V65.63a17.51,17.51,0,0,1,17.49-17.49h586.16A17.51,17.51,0,0,1,1125,65.63Zm-609.15-12H1113V65.63a5.5,5.5,0,0,0-5.49-5.49H521.39a5.5,5.5,0,0,0-5.49,5.49Z"/><circle class="cls-7" cx="544.88" cy="84.07" r="7.66"/><circle class="cls-7" cx="567.86" cy="84.07" r="7.66"/><circle class="cls-7" cx="590.85" cy="84.07" r="7.66"/><rect class="cls-7" x="616.71" y="76.41" width="478.89" height="15.32" rx="6.5" ry="6.5"/><rect class="cls-8" x="583.28" y="181.63" width="125.25" height="142.71"/><rect class="cls-8" x="720.35" y="181.63" width="296.98" height="142.71"/><rect class="cls-9" x="877.11" y="340.14" width="140.22" height="142.71"/><rect class="cls-9" x="584.86" y="340.14" width="280.43" height="142.71"/><rect class="cls-9" x="584.86" y="498.65" width="433.26" height="142.71"/><rect class="cls-9" x="163.78" y="530.05" width="97.51" height="10"/><rect class="cls-9" x="163.78" y="556.87" width="97.51" height="10"/><rect class="cls-9" x="163.78" y="583.68" width="97.51" height="10"/><rect class="cls-9" x="163.78" y="610.5" width="97.51" height="10"/><rect class="cls-9" x="163.78" y="637.32" width="97.51" height="10"/><rect class="cls-9" x="163.78" y="664.14" width="97.51" height="10"/><polygon class="cls-9" points="214.31 458.25 233.59 425.19 263.46 450.25 263.46 473.14 180.58 473.14 200.82 445.19 214.31 458.25"/><polygon class="cls-9" points="301.61 442.64 272.7 442.64 272.7 407.46 278.48 401.92 301.61 425.53 301.61 442.64"/><path class="cls-9" d="M194.26,439.76A15.79,15.79,0,1,0,178.46,424,15.84,15.84,0,0,0,194.26,439.76Z"/><path class="cls-10" d="M894.93,316.06V729.48H285.78V316.06a11.7,11.7,0,0,1,11.49-11.84H883.43A11.7,11.7,0,0,1,894.93,316.06Z"/><path class="cls-5" d="M872.9,335.73V737.14H263.75V335.73a11.53,11.53,0,0,1,11.49-11.49H861.4a11.29,11.29,0,0,1,2.06.19A11.53,11.53,0,0,1,872.9,335.73Z"/><polygon class="cls-6" points="273.33 379.78 874.81 379.78 874.81 339.38 863.32 324.23 336.54 324.23 270.46 324.23 265.67 339.38 265.67 379.78 273.33 379.78"/><circle class="cls-7" cx="300.64" cy="352.25" r="7.66"/><circle class="cls-7" cx="323.63" cy="352.25" r="7.66"/><circle class="cls-7" cx="346.62" cy="352.25" r="7.66"/><rect class="cls-7" x="372.48" y="344.59" width="478.89" height="15.32" rx="6.5" ry="6.5"/><circle class="cls-9" cx="438.18" cy="608.88" r="26.74"/><circle class="cls-9" cx="569.53" cy="608.88" r="26.74"/><circle class="cls-9" cx="700.88" cy="608.88" r="26.74"/><rect class="cls-11" x="343.02" y="430.65" width="453.03" height="122.6" rx="12" ry="12"/><rect class="cls-12" x="346.71" y="667.93" width="216.46" height="12"/><rect class="cls-12" x="345.76" y="691.87" width="348.63" height="12"/><rect class="cls-12" x="593.82" y="667.93" width="206.88" height="12"/><polygon class="cls-13" points="279.38 736.18 270.38 736.18 270.38 384.01 872.53 384.01 872.53 393.01 279.38 393.01 279.38 736.18"/><rect class="cls-4" x="266.35" y="373.78" width="606.65" height="12"/><path class="cls-4" d="M880.81,743.14H259.67V335.73a17.51,17.51,0,0,1,17.49-17.49H863.32a17.51,17.51,0,0,1,17.49,17.49Zm-609.15-12H868.81V335.73a5.5,5.5,0,0,0-5.49-5.49H277.16a5.5,5.5,0,0,0-5.49,5.49Z"/><rect class="cls-9" x="923.29" y="664.18" width="111.1" height="8"/></g></g></svg>