<svg xmlns="http://www.w3.org/2000/svg" xmlns:xlink="http://www.w3.org/1999/xlink" viewBox="0 0 1286.04 814.84"><defs><style>.cls-1{fill:url(#linear-gradient);}.cls-2{fill:#e7f6ff;}.cls-3{fill:none;}.cls-4{fill:#426572;}.cls-5{fill:#fff;}.cls-6{fill:#c1cede;opacity:0.4;}.cls-7{fill:#e2f2ff;}.cls-8{fill:#cadce8;}.cls-9{fill:#dde4ed;}.cls-10{fill:#e8837e;}.cls-11{fill:#87d6fe;}.cls-12{fill:#fbc907;}.cls-13{fill:#a8ef9e;}.cls-14{fill:#606060;opacity:0.2;}.cls-15{fill:#a7e59c;}.cls-16{fill:#37b5ff;}.cls-17{fill:#d66765;}.cls-18{fill:#85d175;}</style><linearGradient id="linear-gradient" x1="1.32" y1="442.89" x2="1254.6" y2="442.89" gradientUnits="userSpaceOnUse"><stop offset="0" stop-color="#c5e9fa"/><stop offset="1" stop-color="#c4f4ea"/></linearGradient></defs><title>Asset 15</title><g id="Layer_2" data-name="Layer 2"><g id="Layer_1-2" data-name="Layer 1"><path class="cls-1" d="M1218.18,521.16c-45.45,117.68-130.9,220.78-249.59,266.09a431.14,431.14,0,0,1-47.21,14.95C836.7,823.79,744.06,816.28,666,776.93c-33.13-16.71-63.34-38.79-96.59-55.26S498.19,694.43,462,702.56c-31.16,7-57.45,27.06-83.92,44.93-62.4,42.13-137.43,75.47-211.32,61-34-6.65-67.48-25.07-83.27-55.86-34.9-68.07,30.92-149,17.59-224.28-8.53-48.18-47.49-84.26-71.71-126.78-41.44-72.73-36.53-169.34,12.06-237.5S179.74,59.78,262,75.24C362.31,94.09,438.15,179,535.69,209c61,18.77,127.23,13.17,185.49-11.55,94.13-39.95,223.45-101.22,329.38-91.24,56.33,5.31,111.58,30.31,148.76,73,47,53.89,61.09,130.4,53.25,201.46A563.35,563.35,0,0,1,1218.18,521.16Z"/><path class="cls-2" d="M1248.42,614.24a26.24,26.24,0,0,1-6.2-.75,25.94,25.94,0,1,1,6.2.75Zm-.07-40.18a14.09,14.09,0,0,0-3.29,27.78h0a14.08,14.08,0,1,0,6.64-27.37A14.16,14.16,0,0,0,1248.35,574.05Z"/><circle class="cls-2" cx="1213.76" cy="639.1" r="11.33" transform="translate(306.61 1668.05) rotate(-76.37)"/><path class="cls-2" d="M55.19,611.77a26.09,26.09,0,1,1,1.14,0Zm0-40.17H54.6a14.09,14.09,0,1,0,.61,0Z"/><circle class="cls-2" cx="36.08" cy="644.24" r="11.33" transform="translate(-27.71 2.15) rotate(-2.47)"/><path class="cls-2" d="M709.08,190A26.07,26.07,0,1,1,724,185.25,26.07,26.07,0,0,1,709.08,190ZM709,149.8a14.13,14.13,0,1,0,2.47.22A14.17,14.17,0,0,0,709,149.8Z"/><circle class="cls-2" cx="649.4" cy="179.29" r="11.33" transform="translate(14.75 405.32) rotate(-35.04)"/><rect class="cls-3" x="713.36" y="176.84" width="44.48" height="44.48"/><rect class="cls-3" x="713.36" y="176.84" width="44.48" height="44.48"/><path class="cls-4" d="M839.66,795.83"/><path class="cls-5" d="M1286,324.36a41.46,41.46,0,0,0-41.46-41.46c-.92,0-1.83,0-2.73.09.06-.9.09-1.81.09-2.73a41.46,41.46,0,1,0-81.56,10.54A41.46,41.46,0,1,0,1127.78,365a41.46,41.46,0,0,0,68.84,13.94,41.46,41.46,0,0,0,62.66-15.8A41.47,41.47,0,0,0,1286,324.36Z"/><path class="cls-5" d="M191.45,224.66A41.46,41.46,0,0,0,150,183.2c-.92,0-1.83,0-2.73.09.06-.9.09-1.81.09-2.73A41.46,41.46,0,1,0,65.8,191.1a41.46,41.46,0,1,0-32.61,74.19A41.46,41.46,0,0,0,102,279.22a41.46,41.46,0,0,0,62.66-15.8A41.47,41.47,0,0,0,191.45,224.66Z"/><path class="cls-4" d="M954.18,814.63H357.68v-13h596.5a6.5,6.5,0,1,1,0,13Z"/><path class="cls-4" d="M331,814.63H294.53a6.5,6.5,0,1,1,0-13H331a6.5,6.5,0,1,1,0,13Z"/><path class="cls-4" d="M270.86,814.63H259.24a6.5,6.5,0,0,1,0-13h11.62a6.5,6.5,0,0,1,0,13Z"/><path class="cls-4" d="M1163.34,814.63H980v-13h183.34a6.5,6.5,0,0,1,0,13Z"/><path class="cls-4" d="M226,814.63H42.65v-13H226a6.5,6.5,0,0,1,0,13Z"/><path class="cls-5" d="M991.86,123.53V809.84H258.5V123.53a47.82,47.82,0,0,1,47.68-47.69h638A47.82,47.82,0,0,1,991.86,123.53Z"/><rect class="cls-5" x="298.26" y="189.01" width="645.84" height="620.83"/><path class="cls-6" d="M987.86,109.93v9.67c-5.89-13.22-24.18-22.92-45.68-22.92h-638c-26.23,0-47.68,14.44-47.68,32.1V571.84h-2V109.93c0-17.65,21.45-32.1,47.68-32.1h638C966.41,77.84,987.86,92.28,987.86,109.93Z"/><path class="cls-4" d="M993.86,814.84H248.5V122.53a53.75,53.75,0,0,1,53.68-53.69h638a53.75,53.75,0,0,1,53.68,53.69V361.84h-12V122.53a41.73,41.73,0,0,0-41.68-41.69h-638a41.73,41.73,0,0,0-41.68,41.69V802.84H981.86v-301h12Z"/><polygon class="cls-7" points="307.85 244.73 941.46 244.73 941.46 202.55 940.45 186.73 373.92 186.73 300.86 186.73 299.85 202.55 299.85 244.73 307.85 244.73"/><rect class="cls-8" x="322.46" y="209.98" width="589.49" height="16" rx="6.5" ry="6.5"/><path class="cls-4" d="M950.1,813.84H292.26V181H950.1Zm-645.84-12H938.1V193H304.26Z"/><rect class="cls-9" x="709.24" y="615.34" width="146.4" height="149"/><rect class="cls-9" x="404.11" y="615.34" width="292.8" height="149"/><rect class="cls-10" x="726.82" y="308.84" width="128.65" height="56"/><rect class="cls-11" x="726.82" y="375" width="128.65" height="56"/><rect class="cls-12" x="726.82" y="507.34" width="128.65" height="56"/><rect class="cls-13" x="726.82" y="441.17" width="128.65" height="56"/><path class="cls-14" d="M367.08,185.36A111.31,111.31,0,1,0,168,85.94a111.33,111.33,0,0,0,89.46,163.31q-4.82,1.14-9.79,1.85a111.31,111.31,0,0,0,95.87-32.76A111.57,111.57,0,0,0,367.08,185.36Z"/><path class="cls-14" d="M1017.54,38.92a111.31,111.31,0,1,0-50.59,216.72,111.33,111.33,0,0,0,138.15-124.86q2.22,4.42,4.07,9.09a111.31,111.31,0,0,0-54.08-85.67A111.57,111.57,0,0,0,1017.54,38.92Z"/><path class="cls-14" d="M373.82,630.83a103.2,103.2,0,1,0-184.59-92.17,103.21,103.21,0,0,0,82.94,151.41q-4.47,1.05-9.07,1.72A103.19,103.19,0,0,0,352,661.41,103.43,103.43,0,0,0,373.82,630.83Z"/><circle class="cls-13" cx="253.85" cy="112" r="111.3"/><path class="cls-15" d="M359.85,119.95A111.31,111.31,0,0,1,232.65,230.1a111.3,111.3,0,0,0,0-220.31,111.31,111.31,0,0,1,127.2,110.16Z"/><path class="cls-4" d="M251.2,234.59A117.3,117.3,0,1,1,368.5,117.3,117.43,117.43,0,0,1,251.2,234.59ZM251.2,12A105.3,105.3,0,1,0,356.5,117.3,105.41,105.41,0,0,0,251.2,12Z"/><path class="cls-11" d="M1005.33,17.6a108.4,108.4,0,1,0,.38,0Z"/><path class="cls-16" d="M1114.85,127.26a108.54,108.54,0,0,1-211,35.68,13,13,0,0,1,1.75-.75c11.07-3.86,21,7.22,29.26,15.52,17.43,17.51,43.27,26.83,67.61,22.65s46.17-22.5,52.81-46.29c6-21.41.39-46.19,12.36-64.92A40.46,40.46,0,0,1,1099.25,71,107.81,107.81,0,0,1,1114.85,127.26Z"/><path class="cls-4" d="M1008.33,241.9a114.53,114.53,0,1,1,0-229.06h.38a114.53,114.53,0,0,1-.38,229.06Zm0-217.06a102.27,102.27,0,1,0,.37,0Z"/><path class="cls-5" d="M1022.28,207.5c-35.28,0-42.38-27.13-44.09-33.92V119.32H957.84V92.19a70,70,0,0,0,37.31-47.55h20.35V92.19H1046v27.13H1015.5v47.55c1,7.45,5.07,12.9,13.57,13.57,8.81-.67,13.57-4.75,13.92-6.34l-.35-.35a.32.32,0,0,1,.35.28.32.32,0,0,1,0,.07l9.83,20S1044,207.5,1022.28,207.5Z"/><path class="cls-10" d="M244.33,471.6a108.4,108.4,0,1,0,.38,0Z"/><path class="cls-17" d="M353.85,581.26a108.54,108.54,0,0,1-211,35.68,13,13,0,0,1,1.75-.75c11.07-3.86,21,7.22,29.26,15.52,17.43,17.51,43.27,26.83,67.61,22.65s46.17-22.5,52.81-46.29c6-21.41.39-46.19,12.36-64.92A40.46,40.46,0,0,1,338.25,525,107.81,107.81,0,0,1,353.85,581.26Z"/><path class="cls-4" d="M247.33,695.9a114.53,114.53,0,1,1,0-229.06h.38a114.53,114.53,0,0,1-.38,229.06Zm0-217.06a102.27,102.27,0,1,0,.37,0Z"/><path class="cls-5" d="M231.65,643.6V571l-20,19.81-20.18-21,45.15-44.23h30.67V643.6Z"/><polygon class="cls-9" points="700.94 587.84 700.94 587.84 409.58 587.84 469.58 504.98 509.58 543.7 566.73 445.69 700.94 587.84"/><path class="cls-9" d="M520.55,434.69a27.88,27.88,0,1,0-27.88-27.88A28,28,0,0,0,520.55,434.69Z"/><rect class="cls-4" x="981.46" y="457" width="12" height="22.5"/><rect class="cls-4" x="981.46" y="381.84" width="12" height="60.66"/><path class="cls-18" d="M292.86,166.28c-32.66,4.63-72.92-7.35-72.92-7.35l-19.85,3.95a5.89,5.89,0,0,1-7-6A395.17,395.17,0,0,0,192,114.32a5.87,5.87,0,0,1,8.24-5.93,34.17,34.17,0,0,0,14.36,3.52c12.05-.1,22.57-9.34,27.95-20.31s6.6-18.08,7.73-30.28c.49-5.33,1.27-11.24,5.32-14.66,7-5.93,18.52,1,20.79,9.95S275,69.51,271.91,78.24c-2,5.68-1.56,6-3.18,11.85a3.6,3.6,0,0,0,.06,3,3.17,3.17,0,0,0,2.3,1.06c6.54.84,10.83,3.28,17.38,4A16.31,16.31,0,0,1,302,108.67v49.09a8.46,8.46,0,0,1-9.1,8.51Z"/></g></g></svg>