<svg xmlns="http://www.w3.org/2000/svg" xmlns:xlink="http://www.w3.org/1999/xlink" viewBox="0 0 1286.04 746.09"><defs><style>.cls-1{fill:url(#linear-gradient);}.cls-2{fill:#e7f6ff;}.cls-3{fill:none;}.cls-4{fill:#426572;}.cls-5{fill:#fff;}.cls-6{fill:#ebf0f9;}.cls-7{fill:#637f91;}.cls-10,.cls-8{opacity:0.5;}.cls-10,.cls-9{fill:#a7bcd5;}.cls-11{fill:#d6dee9;}.cls-12{fill:#e8837e;}.cls-13{fill:#d66765;}.cls-14{fill:#606060;opacity:0.2;}.cls-15{fill:#a8ef9e;}.cls-16{fill:#a7e59c;}.cls-17{fill:#85d175;}</style><linearGradient id="linear-gradient" x1="1.32" y1="371.19" x2="1254.6" y2="371.19" gradientUnits="userSpaceOnUse"><stop offset="0" stop-color="#c5e9fa"/><stop offset="1" stop-color="#c4f4ea"/></linearGradient></defs><title>Asset 18</title><g id="Layer_2" data-name="Layer 2"><g id="Layer_1-2" data-name="Layer 1"><path class="cls-1" d="M1218.18,449.46c-45.45,117.68-130.9,220.78-249.59,266.09a431.14,431.14,0,0,1-47.21,14.95C836.7,752.09,744.06,744.58,666,705.24c-33.13-16.71-63.34-38.79-96.59-55.26S498.19,622.73,462,630.86c-31.16,7-57.45,27.06-83.92,44.93-62.4,42.13-137.43,75.47-211.32,61-34-6.65-67.48-25.07-83.27-55.86-34.9-68.07,30.92-149,17.59-224.28-8.53-48.18-47.49-84.26-71.71-126.78C-12.08,257.14-7.18,160.53,41.42,92.38S179.74-11.92,262,3.54C362.31,22.4,438.15,107.29,535.69,137.33c61,18.77,127.23,13.17,185.49-11.55,94.13-39.95,223.45-101.22,329.38-91.24,56.33,5.31,111.58,30.31,148.76,73,47,53.89,61.09,130.4,53.25,201.46A563.35,563.35,0,0,1,1218.18,449.46Z"/><path class="cls-2" d="M1248.42,542.54a26.3,26.3,0,0,1-6.2-.75,25.94,25.94,0,1,1,6.2.75Zm0-40.18a14.09,14.09,0,0,0-3.32,27.77h0a14.08,14.08,0,1,0,3.32-27.77Z"/><circle class="cls-2" cx="1213.76" cy="567.4" r="11.33" transform="translate(376.29 1613.25) rotate(-76.37)"/><path class="cls-2" d="M55.19,540.07a26.09,26.09,0,1,1,1.14,0Zm0-40.17H54.6a14.09,14.09,0,1,0,.61,0Z"/><circle class="cls-2" cx="36.08" cy="572.54" r="11.33" transform="translate(-24.62 2.08) rotate(-2.47)"/><path class="cls-2" d="M709.08,118.26A26.06,26.06,0,1,1,724,113.55,26.07,26.07,0,0,1,709.08,118.26ZM709,78.1a14.14,14.14,0,1,0,2.47.22A14.17,14.17,0,0,0,709,78.1Z"/><circle class="cls-2" cx="649.4" cy="107.59" r="11.33" transform="translate(55.91 392.32) rotate(-35.04)"/><rect class="cls-3" x="713.36" y="105.14" width="44.48" height="44.48"/><rect class="cls-3" x="713.36" y="105.14" width="44.48" height="44.48"/><path class="cls-4" d="M839.66,724.13"/><path class="cls-5" d="M1286,252.66a41.46,41.46,0,0,0-41.46-41.46c-.92,0-1.83,0-2.73.09.06-.9.09-1.81.09-2.73a41.46,41.46,0,1,0-81.56,10.54,41.46,41.46,0,1,0-32.61,74.19,41.46,41.46,0,0,0,68.84,13.94,41.46,41.46,0,0,0,62.66-15.8A41.47,41.47,0,0,0,1286,252.66Z"/><path class="cls-5" d="M191.45,153A41.46,41.46,0,0,0,150,111.5c-.92,0-1.83,0-2.73.09.06-.9.09-1.81.09-2.73A41.46,41.46,0,1,0,65.8,119.4a41.46,41.46,0,1,0-32.61,74.19A41.46,41.46,0,0,0,102,207.53a41.46,41.46,0,0,0,62.66-15.8A41.47,41.47,0,0,0,191.45,153Z"/><path class="cls-4" d="M954.18,742.93H357.68v-13h596.5a6.5,6.5,0,1,1,0,13Z"/><path class="cls-4" d="M331,742.93H294.53a6.5,6.5,0,0,1,0-13H331a6.5,6.5,0,1,1,0,13Z"/><path class="cls-4" d="M270.86,742.93H259.24a6.5,6.5,0,0,1,0-13h11.62a6.5,6.5,0,0,1,0,13Z"/><path class="cls-4" d="M1163.34,742.93H980v-13h183.34a6.5,6.5,0,0,1,0,13Z"/><path class="cls-4" d="M226,742.93H42.65v-13H226a6.5,6.5,0,1,1,0,13Z"/><path class="cls-6" d="M254.27,235.44H985a13.36,13.36,0,0,1,13.36,13.36V712.31a0,0,0,0,1,0,0H240.91a0,0,0,0,1,0,0V248.8A13.36,13.36,0,0,1,254.27,235.44Z"/><rect class="cls-7" x="270.24" y="268.53" width="701.77" height="400.9"/><path class="cls-5" d="M265,668.68H975a0,0,0,0,1,0,0v0a12,12,0,0,1-12,12H277a12,12,0,0,1-12-12v0a0,0,0,0,1,0,0Z"/><g class="cls-8"><polygon class="cls-9" points="479.94 267.03 375.02 671.69 322.18 671.69 427.1 267.03 479.94 267.03"/><polygon class="cls-9" points="614.63 267.03 509.7 671.69 398.9 671.69 503.82 267.03 614.63 267.03"/></g><path class="cls-4" d="M1004.33,718.31H234.91V280.9a51.52,51.52,0,0,1,51.46-51.46h288.1v12H286.37a39.51,39.51,0,0,0-39.46,39.46V706.31H992.33V252.37a10.94,10.94,0,0,0-10.93-10.93H707.46v-12H981.4a23,23,0,0,1,22.93,22.93Z"/><path class="cls-6" d="M145.38,698h968.78a0,0,0,0,1,0,0v3.12a39,39,0,0,1-39,39H184.38a39,39,0,0,1-39-39V698A0,0,0,0,1,145.38,698Z"/><path class="cls-10" d="M1109.21,718.33a29.34,29.34,0,0,1-27.39,18.8H171.71a29.34,29.34,0,0,1-27.39-18.8Z"/><path class="cls-4" d="M1070.65,744.64H179.87a45.05,45.05,0,0,1-45-45v-9.12h980.78v9.12A45.05,45.05,0,0,1,1070.65,744.64ZM147,702.51a33,33,0,0,0,32.88,30.12h890.78a33,33,0,0,0,32.88-30.12Z"/><path class="cls-4" d="M976.5,673.18H262.74V262.53H976.5Zm-701.77-12H964.5V274.53H274.74Z"/><path class="cls-5" d="M1096.11,364.81V475.38a9.06,9.06,0,0,1-9,9H890.77a8.88,8.88,0,0,1-3.66-.78,9,9,0,0,1-5.37-8.24V364.81a9,9,0,0,1,5.78-8.42h0a8.84,8.84,0,0,1,3.22-.6h196.31a9.06,9.06,0,0,1,8.94,7.77A8.59,8.59,0,0,1,1096.11,364.81Z"/><path class="cls-11" d="M1094.61,361.8V472.37a9.06,9.06,0,0,1-9,9H889.27a8.88,8.88,0,0,1-3.66-.78,9,9,0,0,1-5.37-8.24v-1.5h193.31a9.06,9.06,0,0,0,9-9V352.78h3a9.06,9.06,0,0,1,8.94,7.77A8.59,8.59,0,0,1,1094.61,361.8Z"/><path class="cls-4" d="M1085.58,488.9H889.27a14.82,14.82,0,0,1-6.12-1.31,15,15,0,0,1-8.91-13.72V363.31a15.12,15.12,0,0,1,9.3-13.88l1-.54h.48a14.82,14.82,0,0,1,4.21-.6h196.31a15.09,15.09,0,0,1,14.88,12.93,14.52,14.52,0,0,1,.15,2.09V473.88a14.91,14.91,0,0,1-2.79,8.71A15.06,15.06,0,0,1,1085.58,488.9Zm-198.11-128a3,3,0,0,0-1.23,2.42V473.88a3,3,0,0,0,1.81,2.76,2.93,2.93,0,0,0,1.22.26h196.31a3,3,0,0,0,2.46-1.29,3,3,0,0,0,.56-1.74V363.31a2.6,2.6,0,0,0,0-.38,3.05,3.05,0,0,0-3-2.65H889.27a2.88,2.88,0,0,0-.83.12Z"/><path class="cls-4" d="M937,413.81A32.07,32.07,0,0,0,927.4,410,11.88,11.88,0,0,0,933,399.82,11.92,11.92,0,1,0,914.69,410a31.85,31.85,0,0,0-10,3.84,5.82,5.82,0,0,0-2.63,4.51v14.29a3,3,0,0,0,3,3h31.59a3,3,0,0,0,3-3V418.33A5.62,5.62,0,0,0,937,413.81Z"/><rect class="cls-4" x="957.72" y="374.49" width="105.3" height="12"/><rect class="cls-4" x="957.72" y="395.55" width="67.69" height="12"/><rect class="cls-4" x="957.72" y="436.92" width="103.8" height="12"/><path class="cls-12" d="M630.62,739.39s160.06-80,160.06-200.07V379.25l-160.06-40-160.06,40V539.31C470.56,659.36,630.62,739.39,630.62,739.39Z"/><path class="cls-13" d="M662.35,724.65a362.33,362.33,0,0,1-31.83,18.74s-160.06-80-160.06-200.08V383.25l35-8.75V510.19C505.46,614.79,611.2,693,662.35,724.65Z"/><path class="cls-4" d="M627.42,746.09l-2.68-1.34c-1.66-.83-41.17-20.75-81.3-55.87-23.69-20.73-42.59-42.43-56.18-64.52-17.19-27.93-25.9-56.54-25.9-85V374.57l166.06-41.52,1.46.36,164.6,41.15V539.31c0,28.51-8.71,57.12-25.9,85-13.59,22.09-32.49,43.79-56.18,64.52-40.13,35.12-79.64,55-81.3,55.87ZM473.36,383.94V539.31c0,26.25,8.11,52.75,24.12,78.76,13,21.06,31.08,41.85,53.86,61.78a429.65,429.65,0,0,0,76.08,52.77,430.41,430.41,0,0,0,76.28-52.94C726.43,659.76,744.51,639,757.43,618c16-26,24-52.43,24-78.64V383.94L627.42,345.42Z"/><path class="cls-5" d="M534.44,600.8l69.16,55.33,9.82,7.86c5.42,4.34,10.56,6.73,17.64,5.78a20.72,20.72,0,0,0,15.34-10L722.1,536l10.8-17.65c5.74-9.38,2.36-23.51-7.53-28.73-10.23-5.41-22.61-2.48-28.73,7.53l-75.7,123.76-10.8,17.65,33-4.25L574,579l-9.82-7.86c-8.56-6.85-21.45-9-29.7,0-7,7.62-9.16,22.37,0,29.7Z"/><path class="cls-14" d="M356,345a111.31,111.31,0,1,0-199.1-99.42,111.33,111.33,0,0,0,89.46,163.31q-4.82,1.14-9.79,1.85a111.31,111.31,0,0,0,95.87-32.76A111.57,111.57,0,0,0,356,345Z"/><circle class="cls-15" cx="242.76" cy="271.6" r="111.3"/><path class="cls-16" d="M348.75,279.55A111.31,111.31,0,0,1,221.56,389.7a111.3,111.3,0,0,0,0-220.31,111.31,111.31,0,0,1,127.2,110.16Z"/><path class="cls-4" d="M240.11,394.19A117.3,117.3,0,1,1,357.4,276.9,117.43,117.43,0,0,1,240.11,394.19Zm0-222.59A105.3,105.3,0,1,0,345.4,276.9,105.41,105.41,0,0,0,240.11,171.6Z"/><rect class="cls-4" x="669.8" y="229.97" width="22.5" height="12"/><rect class="cls-4" x="594.63" y="229.97" width="60.66" height="12"/><path class="cls-17" d="M283.86,337.74c-32.66,4.63-72.92-7.35-72.92-7.35l-19.85,3.95a5.89,5.89,0,0,1-7-6A395.17,395.17,0,0,0,183,285.78a5.87,5.87,0,0,1,8.24-5.93,34.17,34.17,0,0,0,14.36,3.52c12.05-.1,22.57-9.34,27.95-20.31s6.6-18.08,7.73-30.28c.49-5.33,1.27-11.24,5.32-14.66,7-5.93,18.52,1,20.79,9.95S266,241,262.91,249.7c-2,5.68-1.56,6-3.18,11.85a3.6,3.6,0,0,0,.06,3,3.17,3.17,0,0,0,2.3,1.06c6.54.84,10.83,3.28,17.38,4A16.31,16.31,0,0,1,293,280.14v49.09a8.46,8.46,0,0,1-9.1,8.51Z"/></g></g></svg>