<svg xmlns="http://www.w3.org/2000/svg" xmlns:xlink="http://www.w3.org/1999/xlink" viewBox="0 0 1286.04 795.78"><defs><style>.cls-1{fill:url(#linear-gradient);}.cls-2{fill:#e7f6ff;}.cls-3{fill:none;}.cls-4{fill:#426572;}.cls-5{fill:#fff;}.cls-6{opacity:0.04;}.cls-7{fill:#a8a8a8;}.cls-8{fill:#e5e5e5;}.cls-9{fill:#e8edf7;}.cls-10{fill:#c0cee2;}.cls-11{fill:#e8837e;}.cls-12{fill:#8da3b2;opacity:0.2;}.cls-13{fill:#d66765;}</style><linearGradient id="linear-gradient" x1="1.32" y1="424.03" x2="1254.6" y2="424.03" gradientUnits="userSpaceOnUse"><stop offset="0" stop-color="#c5e9fa"/><stop offset="1" stop-color="#c4f4ea"/></linearGradient></defs><title>Asset 13</title><g id="Layer_2" data-name="Layer 2"><g id="Layer_1-2" data-name="Layer 1"><path class="cls-1" d="M1218.18,502.3C1172.73,620,1087.28,723.08,968.59,768.39a431.14,431.14,0,0,1-47.21,14.95C836.7,804.93,744.06,797.42,666,758.08c-33.13-16.71-63.34-38.79-96.59-55.26S498.19,675.57,462,683.7c-31.16,7-57.45,27.06-83.92,44.93-62.4,42.13-137.43,75.47-211.32,61-34-6.65-67.48-25.07-83.27-55.86-34.9-68.07,30.92-149,17.59-224.28-8.53-48.18-47.49-84.26-71.71-126.78C-12.08,310-7.18,213.37,41.42,145.22S179.74,40.92,262,56.38c100.3,18.85,176.15,103.75,273.69,133.78,61,18.77,127.23,13.17,185.49-11.55,94.13-39.95,223.45-101.22,329.38-91.24,56.33,5.31,111.58,30.31,148.76,73,47,53.89,61.09,130.4,53.25,201.46A563.35,563.35,0,0,1,1218.18,502.3Z"/><path class="cls-2" d="M1248.42,595.38a26.3,26.3,0,0,1-6.2-.75,25.94,25.94,0,1,1,6.2.75Zm0-40.18a14.09,14.09,0,0,0-3.32,27.77h0a14.08,14.08,0,1,0,3.32-27.77Z"/><circle class="cls-2" cx="1213.76" cy="620.24" r="11.33" transform="translate(324.94 1653.64) rotate(-76.37)"/><path class="cls-2" d="M55.19,592.91a26.09,26.09,0,1,1,1.14,0Zm0-40.17H54.6a14.09,14.09,0,1,0,.61,0Z"/><circle class="cls-2" cx="36.08" cy="625.38" r="11.33" transform="translate(-26.9 2.13) rotate(-2.47)"/><path class="cls-2" d="M709.08,171.11A26.06,26.06,0,1,1,724,166.39,26.07,26.07,0,0,1,709.08,171.11ZM709,130.94a14.14,14.14,0,1,0,2.47.22A14.17,14.17,0,0,0,709,130.94Z"/><circle class="cls-2" cx="649.4" cy="160.43" r="11.33" transform="translate(25.58 401.9) rotate(-35.04)"/><rect class="cls-3" x="713.36" y="157.98" width="44.48" height="44.48"/><rect class="cls-3" x="713.36" y="157.98" width="44.48" height="44.48"/><path class="cls-4" d="M839.66,777"/><path class="cls-5" d="M1286,305.5A41.46,41.46,0,0,0,1244.59,264c-.92,0-1.83,0-2.73.09.06-.9.09-1.81.09-2.73a41.46,41.46,0,1,0-81.56,10.54,41.46,41.46,0,1,0-32.61,74.19,41.46,41.46,0,0,0,68.84,13.94,41.46,41.46,0,0,0,62.66-15.8A41.47,41.47,0,0,0,1286,305.5Z"/><path class="cls-5" d="M191.45,205.8A41.46,41.46,0,0,0,150,164.34c-.92,0-1.83,0-2.73.09.06-.9.09-1.81.09-2.73A41.46,41.46,0,1,0,65.8,172.24a41.46,41.46,0,1,0-32.61,74.19A41.46,41.46,0,0,0,102,260.37a41.46,41.46,0,0,0,62.66-15.8A41.47,41.47,0,0,0,191.45,205.8Z"/><g class="cls-6"><polygon class="cls-7" points="918.2 555.86 624.46 555.86 334.98 647.5 334.98 649.52 39.11 649.52 39.11 747.43 334.98 747.43 334.98 745.41 624.46 653.77 918.2 653.77 918.2 653.1 1211.94 560.12 1211.94 462.21 918.2 555.19 918.2 555.86"/></g><rect class="cls-5" x="154.73" y="172.94" width="252.53" height="577.72"/><polygon class="cls-8" points="1150.46 586.46 897.94 666.39 897.94 88.67 1150.46 8.74 1150.46 586.46"/><rect class="cls-5" x="647.23" y="88.67" width="252.53" height="577.72"/><polygon class="cls-8" points="649.05 666.39 396.52 746.33 396.52 168.61 649.05 88.67 649.05 666.39"/><rect class="cls-9" x="322.03" y="388.43" width="56.32" height="316.11"/><polygon class="cls-10" points="707.53 319.4 670.85 319.4 670.85 620.98 790.93 620.98 707.53 319.4"/><polygon class="cls-10" points="720.3 319.4 803.7 620.98 876.14 620.98 876.14 319.4 720.3 319.4"/><polygon class="cls-10" points="1114.63 60.97 928.82 117.87 928.82 144.99 928.82 205.21 928.82 210.4 1114.63 60.97"/><polygon class="cls-11" points="928.82 227.66 928.82 231.98 928.82 296.55 1125.03 236.02 1125.03 144.99 1125.03 69.87 928.82 227.66"/><polygon class="cls-10" points="1125.03 466.35 1125.03 447.73 1125.03 296.34 1125.03 269.57 1125.03 249.33 928.82 309.85 928.82 317.38 1125.03 466.35"/><polygon class="cls-10" points="431.04 610.08 431.04 697.28 431.04 697.68 474.62 683.53 474.69 683.13 501.94 674.3 501.88 674.68 627.25 633.97 627.25 633.69 627.25 554.43 627.25 527.66 627.25 413.87 431.04 610.08"/><polygon class="cls-10" points="626.85 397.1 627.25 397.5 627.25 376.28 627.25 349.51 627.25 325.07 431.04 385.6 431.04 463.3 431.04 490.07 431.04 592.91 626.85 397.1"/><polygon class="cls-11" points="1046.94 421.74 928.82 332.06 928.82 383.37 928.82 410.13 928.82 458.18 1046.94 421.74"/><polygon class="cls-11" points="309.32 586.09 309.32 388.43 173.06 388.43 173.06 628.12 309.32 586.09"/><polygon class="cls-9" points="173.06 641.43 173.06 704.54 309.32 704.54 309.32 599.39 173.06 641.43"/><rect class="cls-5" x="1121.4" y="117.74" width="9.08" height="10.9"/><path class="cls-5" d="M1130.48,215.84h-9.08V194h9.08Zm0-43.6h-9.08v-21.8h9.08Z"/><polygon class="cls-5" points="1120.95 261.07 1114.83 254.36 1121.4 248.36 1121.4 239.46 1130.48 239.46 1130.48 252.37 1120.95 261.07"/><path class="cls-5" d="M879.77,393.88H858V384.8h21.8Zm-41.78,0h-21.8V384.8H838Zm-43.6,0h-21.8V384.8h21.8Zm108.65-2-2.11-8.84L922,378l2.11,8.84Zm42.18-10.08L943.1,373l21.09-5,2.11,8.84Zm42.18-10.08-2.11-8.84,13.1-3.13,4.34-4,6.12,6.71-6.07,5.54Zm37.46-23.84-6.12-6.71,16-14.62,6.12,6.71Zm32-29.25-6.12-6.71,16-14.62,6.12,6.71Zm32-29.24-6.12-6.71,16-14.62,6.12,6.71Z"/><polygon class="cls-5" points="738.86 401.11 730.81 396.9 737.13 384.8 750.78 384.8 750.78 393.88 742.63 393.88 738.86 401.11"/><path class="cls-5" d="M704.69,464.68l-8.05-4.2,8.42-16.12,8.05,4.2Zm16.84-32.24-8.05-4.2,8.42-16.12,8.05,4.2Z"/><polygon class="cls-5" points="687.26 498.05 678.03 480.91 686.03 476.6 687.14 478.66 688.22 476.59 696.27 480.79 687.26 498.05"/><rect class="cls-5" x="663.58" y="443.15" width="9.08" height="19.56" transform="translate(-134.87 370.87) rotate(-28.3)"/><polygon class="cls-5" points="650.22 429.25 646.78 422.88 639.82 424.87 637.32 416.14 651.31 412.13 658.21 424.95 650.22 429.25"/><path class="cls-5" d="M402.49,493.8h-4.16v-9.08h2.88l16-4.59,2.5,8.73Zm-26,0h-20v-9.08h20Zm-41.78,0h-20v-9.08h20Zm-40,0h-20v-9.08h20Zm-41.78,0H233v-9.08h20Zm186.84-11.58-2.51-8.73,20-5.74,2.51,8.73Zm40-11.47-2.5-8.73,20-5.73,2.5,8.73Zm40-11.47-2.5-8.73,20-5.73,2.5,8.73Zm40-11.47-2.5-8.73,20-5.73,2.5,8.73Zm40-11.47-2.5-8.73,20-5.73,2.5,8.73Z"/><polygon class="cls-5" points="203.95 499.25 194.86 499.25 194.86 482.9 211.21 482.9 211.21 491.99 203.95 491.99 203.95 499.25"/><rect class="cls-5" x="196.68" y="526.51" width="9.08" height="27.25"/><rect class="cls-5" x="196.68" y="582.82" width="9.08" height="10.9"/><rect class="cls-9" x="247.55" y="212.21" width="130.8" height="163.51"/><rect class="cls-11" x="173.06" y="212.21" width="61.77" height="163.51"/><polygon class="cls-11" points="1059.4 431.2 972.27 458.08 1031.44 584.42 1125.03 554.03 1125.03 553.76 1125.03 481.03 1059.4 431.2"/><polygon class="cls-10" points="1019.25 588.38 960 461.87 928.82 471.49 928.82 617.34 928.82 617.75 972.4 603.6 972.47 603.2 999.72 594.37 999.66 594.74 1019.25 588.38"/><polygon class="cls-4" points="155.14 751.49 143.14 751.45 143.44 664.21 143.44 164.08 395.59 164.08 646.25 84.73 679.55 84.14 897.01 84.14 1156.46 2.01 1156.46 136.15 1144.46 136.15 1144.46 18.4 898.87 96.14 679.61 96.14 648.21 96.7 397.45 176.08 155.44 176.08 155.44 664.23 155.14 751.49"/><polygon class="cls-4" points="402.32 753.8 149.44 753.8 149.44 741.8 401.62 741.8 402.89 741.65 648.09 661.86 899.37 661.86 902.84 661.41 1144.46 583.56 1144.46 283.14 1156.46 283.14 1156.46 592.3 905.48 673.17 900.14 673.86 650 673.86 405.46 753.43 402.32 753.8"/><rect class="cls-4" x="1144.46" y="234.15" width="12" height="22.5"/><rect class="cls-4" x="1144.46" y="158.98" width="12" height="60.66"/><path class="cls-12" d="M668,23.56c-150.32-.32-244,94.27-244.28,243.23-.1,46,24.12,117.86,65.92,204.62,18.88,36.61,41.8,77.28,66.11,118,29.68,50.16,62.06,100.34,94.48,146.44l16.2,21.72c5.43-6.78,10.86-13.53,16.29-21.65,32.61-47.32,65.21-96,95.11-146,24.48-40.58,46.23-81.15,65.26-117.69,43.53-86.57,68.05-158.3,68.15-204.33C911.55,122.94,814.26,23.88,668,23.56Zm-.85,392.7c-89.38-.19-162.35-73.46-162.15-162.85S578.48,91.07,667.86,91.26,830.21,164.74,830,254.11,756.54,416.46,667.16,416.27Z"/><path class="cls-5" d="M792.69,234.3c-.19,89.41-73.48,162.36-162.86,162.16-77.41-.17-142.52-55.15-158.42-128A161.51,161.51,0,0,1,469,240.16C469.17,150.8,542.46,77.82,631.83,78c77.29.17,142.32,55,158.37,127.63a.37.37,0,0,0,0,.12A161.39,161.39,0,0,1,792.69,234.3Z"/><path class="cls-11" d="M632.3,5.8C482,5.47,388.34,100.07,388,249c-.1,46,24.12,117.86,65.92,204.62,18.88,36.61,41.8,77.28,66.11,118,29.68,50.16,62.06,100.34,94.48,146.44l16.2,21.72c5.43-6.78,10.86-13.53,16.29-21.65,32.61-47.32,65.21-96,95.11-146,24.48-40.58,46.23-81.15,65.26-117.69,43.53-86.57,68.05-158.3,68.15-204.33C875.84,105.18,778.56,6.11,632.3,5.8Zm-.85,392.7C542.08,398.31,469.11,325,469.3,235.65S542.78,73.3,632.15,73.49,794.5,147,794.31,236.35,720.83,398.7,631.45,398.5Z"/><path class="cls-13" d="M798,476c-16.72,31.69-35.36,65.8-55.94,99.91-29.88,50-62.49,98.71-95.1,146-5.43,8.12-10.86,14.87-16.3,21.65l-16.2-21.72c-32.4-46.1-64.8-96.28-94.47-146.43-24.31-40.7-47.23-81.37-66.11-118-41.8-86.76-66-158.59-65.92-204.62.13-61.47,16.16-113.67,45.5-153.78-11.62,30.25-17.77,64.71-17.86,102.7-.1,46,24.12,117.87,65.92,204.62,18.88,36.61,41.8,77.28,66.11,118,29.67,50.15,62.06,100.33,94.47,146.43l16.2,21.72c5.44-6.78,10.87-13.53,16.3-21.65,32.6-47.31,65.21-96,95.1-146C779.59,508.48,789,492.11,798,476Z"/><path class="cls-4" d="M630.48,752.42l-21.73-29.13c-32.43-46.13-65.2-96.93-94.77-146.91C488.63,534,465.7,493,447.67,458.06l-.08-.17c-44.3-91.94-66.71-161.81-66.61-207.67.16-75.14,23.66-138.26,67.94-182.54S556.34,0,631.49,0h.78c73.51.16,136.28,24.36,181.53,70a227.57,227.57,0,0,1,50.91,79.53c11.87,31,17.85,65.24,17.77,101.77-.1,46.27-23.92,118-68.9,207.46l0,.09c-16.94,32.52-39.69,75.32-65.47,118.07-31.94,53.46-66.12,104-95.34,146.39-5.48,8.18-11,15.1-16.39,21.79Zm-10.33-37.26,10.71,14.36c3.47-4.43,6.87-9,10.3-14.07,29.14-42.28,63.16-92.59,94.91-145.73,25.58-42.41,48.19-84.95,65-117.28,44-87.5,67.29-157.06,67.39-201.16.15-69.36-22.2-128.64-64.62-171.42C761.29,36.92,701.94,14.15,632.24,14h-.75c-71.36,0-131.06,22-172.68,63.58S395.13,178.89,395,250.25c-.09,43.1,22.45,112.77,65.18,201.48,17.89,34.7,40.66,75.33,65.85,117.5C555.39,618.89,587.94,669.34,620.15,715.16Zm11.62-308.45h-.37A169.31,169.31,0,0,1,512.3,117.22,168.3,168.3,0,0,1,631.75,67.7h.37A169.31,169.31,0,0,1,751.22,357.18,168.3,168.3,0,0,1,631.77,406.71Zm0-325a155.51,155.51,0,0,0-.33,311h.34a155.51,155.51,0,0,0,.33-311Z"/><path class="cls-4" d="M954.18,795.78H357.68v-13h596.5a6.5,6.5,0,0,1,0,13Z"/><path class="cls-4" d="M331,795.78H294.53a6.5,6.5,0,0,1,0-13H331a6.5,6.5,0,1,1,0,13Z"/><path class="cls-4" d="M270.86,795.78H259.24a6.5,6.5,0,0,1,0-13h11.62a6.5,6.5,0,0,1,0,13Z"/><path class="cls-4" d="M1163.34,795.78H980v-13h183.34a6.5,6.5,0,0,1,0,13Z"/><path class="cls-4" d="M226,795.78H42.65v-13H226a6.5,6.5,0,1,1,0,13Z"/><path class="cls-5" d="M767.08,87.74C802,120.15,826.16,162,835.81,208.79A259.15,259.15,0,0,1,840.87,261c0,7.72,12,7.73,12,0-.06-56.28-17.08-110.73-52.31-154.92a245.8,245.8,0,0,0-25-26.85c-5.65-5.25-14.16,3.22-8.49,8.49Z"/><path class="cls-5" d="M704.25,45.76l.7.29c-1.92-.77,1,.45,1.44.65,2.93,1.33,5.81,2.76,8.66,4.24a247,247,0,0,1,28.36,17.5c6.31,4.47,12.32-5.93,6.06-10.36-13.07-9.26-27.07-18-42-23.89-7.18-2.84-10.3,8.76-3.19,11.57Z"/></g></g></svg>